<svg width="24" height="24" viewBox="0 0 24 24" fill="none" xmlns="http://www.w3.org/2000/svg">
<g opacity="0.5" clip-path="url(#clip0)">
<path d="M20.8659 6.23852H6.2484C4.89392 6.23852 3.78661 5.13615 3.78661 3.77673C3.78661 2.42225 4.88898 1.31493 6.2484 1.31493H20.8709C21.2367 1.31493 21.5283 1.01833 21.5283 0.657467C21.5283 0.291658 21.2317 0 20.8709 0H6.2484C4.16725 0 2.47168 1.69557 2.47168 3.77673V20.2233C2.47168 22.3044 4.16725 24 6.2484 24H20.8709C21.2367 24 21.5283 23.7034 21.5283 23.3425V6.89598C21.5234 6.53512 21.2317 6.23852 20.8659 6.23852ZM20.2084 22.6851H6.2484C4.89392 22.6851 3.78661 21.5827 3.78661 20.2233V6.64387C4.44902 7.21236 5.30917 7.55839 6.2484 7.55839H20.2084V22.6851Z" fill="#1D2531"/>
<path d="M6.45605 3.17858C6.09024 3.17858 5.79858 3.47518 5.79858 3.83605C5.79858 4.19691 6.09519 4.49351 6.45605 4.49351H18.8046C19.1704 4.49351 19.462 4.19691 19.462 3.83605C19.462 3.47518 19.1654 3.17858 18.8046 3.17858H6.45605Z" fill="#1D2531"/>
<path d="M14.5967 13.3076C14.5967 13.6904 14.5374 14.0345 14.4189 14.3398C14.305 14.6406 14.1387 14.9027 13.9199 15.126C13.7057 15.3447 13.446 15.5225 13.1406 15.6592C12.8353 15.7959 12.4935 15.8893 12.1152 15.9395L12.0469 17.2246H10.6182L10.4951 14.6543H11.4863C11.7096 14.6543 11.901 14.6224 12.0605 14.5586C12.2246 14.4948 12.3568 14.4082 12.457 14.2988C12.5618 14.1895 12.637 14.0641 12.6826 13.9229C12.7327 13.777 12.7578 13.6243 12.7578 13.4648C12.7578 13.2461 12.71 13.0433 12.6143 12.8564C12.5231 12.665 12.3773 12.4987 12.1768 12.3574C11.9808 12.2116 11.7301 12.0977 11.4248 12.0156C11.1195 11.9336 10.7526 11.8926 10.3242 11.8926H9.9209V10.3408H10.3926C11.0944 10.3408 11.7074 10.4251 12.2314 10.5938C12.7555 10.7578 13.193 10.9788 13.5439 11.2568C13.8949 11.5303 14.1569 11.8447 14.3301 12.2002C14.5078 12.5557 14.5967 12.9248 14.5967 13.3076ZM12.4639 19.0635C12.4639 19.2139 12.4342 19.3551 12.375 19.4873C12.3158 19.6195 12.236 19.7357 12.1357 19.8359C12.0355 19.9362 11.917 20.0137 11.7803 20.0684C11.6436 20.1276 11.4977 20.1572 11.3428 20.1572C11.1878 20.1572 11.042 20.1276 10.9053 20.0684C10.7731 20.0137 10.6569 19.9362 10.5566 19.8359C10.4564 19.7357 10.3766 19.6195 10.3174 19.4873C10.2581 19.3551 10.2285 19.2139 10.2285 19.0635C10.2285 18.9131 10.2581 18.7718 10.3174 18.6396C10.3766 18.5075 10.4564 18.3913 10.5566 18.291C10.6569 18.1908 10.7731 18.1133 10.9053 18.0586C11.042 17.9993 11.1878 17.9697 11.3428 17.9697C11.4977 17.9697 11.6436 17.9993 11.7803 18.0586C11.917 18.1133 12.0355 18.1908 12.1357 18.291C12.236 18.3913 12.3158 18.5075 12.375 18.6396C12.4342 18.7718 12.4639 18.9131 12.4639 19.0635Z" fill="black"/>
</g>
<defs>
<clipPath id="clip0">
<rect width="24" height="24" fill="white"/>
</clipPath>
</defs>
</svg>
