<svg width="24" height="24" viewBox="0 0 24 24" fill="none" xmlns="http://www.w3.org/2000/svg">
<path d="M12 0C5.38316 0 0 5.38316 0 12C0 18.6168 5.38316 24 12 24C18.6168 24 24 18.6168 24 12C24 5.38316 18.6168 0 12 0ZM12 21.5629C6.72708 21.5629 2.43714 17.2729 2.43714 12C2.43714 6.72708 6.72708 2.43714 12 2.43714C17.2729 2.43714 21.5629 6.72708 21.5629 12C21.5629 17.2729 17.2729 21.5629 12 21.5629Z" fill="#AA1212"/>
<path d="M12.1202 4.70001C11.1924 4.70001 10.2002 5.55084 10.2002 6.18924V11.944C10.2002 12.5824 11.1924 13.1 12.1202 13.1C13.048 13.1 14.0743 12.5824 14.0743 11.944L14.0743 6.18924C14.0743 5.55084 13.048 4.70001 12.1202 4.70001Z" fill="#AA1212"/>
<path d="M12.1201 18.8654C13.1142 18.8654 13.9201 18.0595 13.9201 17.0654C13.9201 16.0712 13.1142 15.2654 12.1201 15.2654C11.126 15.2654 10.3201 16.0712 10.3201 17.0654C10.3201 18.0595 11.126 18.8654 12.1201 18.8654Z" fill="#AA1212"/>
</svg>
