<svg width="36" height="36" viewBox="0 0 36 36" fill="none" xmlns="http://www.w3.org/2000/svg">
<path d="M32.0869 10.9565H3.91302C1.75463 10.9565 0 12.7127 0 14.8696V21.1305C0 23.2873 1.75463 25.0435 3.91302 25.0435H32.0869C34.2454 25.0435 35.9999 23.2873 35.9999 21.1305V14.8696C36 12.7127 34.2454 10.9565 32.0869 10.9565ZM34.4347 21.1305C34.4347 22.4249 33.3814 23.4783 32.0869 23.4783H3.91302C2.61856 23.4783 1.56519 22.4249 1.56519 21.1305V14.8696C1.56519 13.5752 2.61856 12.5218 3.91302 12.5218H32.0869C33.3814 12.5218 34.4347 13.5752 34.4347 14.8696V21.1305Z" fill="#B5C0CB"/>
<path d="M17.9999 3.13037C17.5679 3.13037 17.2173 3.481 17.2173 3.913V11.739C17.2173 12.171 17.5679 12.5217 17.9999 12.5217C18.4319 12.5217 18.7826 12.171 18.7826 11.739V3.91293C18.7826 3.48093 18.4319 3.13037 17.9999 3.13037Z" fill="#B5C0CB"/>
<path d="M17.9999 23.478C17.5679 23.478 17.2173 23.8287 17.2173 24.2607V32.0868C17.2173 32.5188 17.5679 32.8694 17.9999 32.8694C18.4319 32.8694 18.7826 32.5187 18.7826 32.0867V24.2607C18.7826 23.8287 18.4319 23.478 17.9999 23.478Z" fill="#B5C0CB"/>
<path d="M25.7571 11.5309C24.3234 6.34843 21.3526 3.13037 17.9999 3.13037C14.6472 3.13037 11.6764 6.34843 10.2427 11.5309C10.1268 11.9473 10.371 12.3776 10.7874 12.4935C11.2084 12.6077 11.6373 12.3636 11.75 11.9473C12.9693 7.54267 15.4236 4.69556 17.9999 4.69556C20.5762 4.69556 23.0305 7.54267 24.2513 11.9472C24.3453 12.2947 24.6599 12.5216 25.0042 12.5216C25.0731 12.5216 25.1419 12.5122 25.2123 12.4934C25.6288 12.3792 25.873 11.9472 25.7571 11.5309Z" fill="#B5C0CB"/>
<path d="M25.2124 23.5066C24.7913 23.3939 24.3625 23.6365 24.2498 24.0528C23.0305 28.4573 20.5763 31.3044 17.9999 31.3044C15.4235 31.3044 12.9693 28.4573 11.75 24.0528C11.6373 23.6365 11.2115 23.3939 10.7874 23.5066C10.371 23.6208 10.1268 24.0528 10.2427 24.4692C11.6765 29.6516 14.6472 32.8697 17.9999 32.8697C21.3526 32.8697 24.3234 29.6516 25.7571 24.4692C25.8729 24.0528 25.6288 23.6224 25.2124 23.5066Z" fill="#B5C0CB"/>
<path d="M31.3059 11.39C28.7702 6.29524 23.6723 3.13037 17.9999 3.13037C12.3276 3.13037 7.22972 6.29524 4.69407 11.3916C4.50155 11.7781 4.65966 12.2477 5.04624 12.4402C5.42975 12.6328 5.90239 12.4746 6.09491 12.0881C8.36445 7.52858 12.9255 4.69556 17.9999 4.69556C23.0743 4.69556 27.6354 7.52858 29.9065 12.0881C30.0427 12.3619 30.3182 12.5216 30.6062 12.5216C30.7236 12.5216 30.8425 12.495 30.9537 12.4386C31.3403 12.2462 31.4984 11.7766 31.3059 11.39Z" fill="#B5C0CB"/>
<path d="M30.9537 23.5596C30.5686 23.3687 30.0975 23.5236 29.905 23.9118C27.6355 28.4713 23.0744 31.3043 18 31.3043C12.9256 31.3043 8.36445 28.4713 6.09491 23.9134C5.90239 23.5252 5.42967 23.3703 5.04624 23.5613C4.65966 23.7538 4.50155 24.2234 4.69407 24.6099C7.22972 29.7047 12.3276 32.8696 17.9999 32.8696C23.6723 32.8696 28.7702 29.7047 31.3059 24.6084C31.4984 24.2217 31.3403 23.7522 30.9537 23.5596Z" fill="#B5C0CB"/>
<path d="M21.3183 14.1106C20.8925 14.0058 20.473 14.2593 20.3697 14.6803L19.4572 18.3335L18.742 16.1876C18.5291 15.549 17.471 15.549 17.2566 16.1876L16.5413 18.3335L15.6288 14.6803C15.5255 14.2592 15.0935 14.0041 14.6803 14.1106C14.2592 14.2154 14.0057 14.6412 14.1106 15.0591L15.6758 21.3199C15.7603 21.6565 16.0577 21.899 16.4051 21.9116C16.8137 21.9288 17.0688 21.7065 17.1784 21.3778L18.0001 18.9095L18.8219 21.3778C18.9299 21.6987 19.2288 21.9131 19.5653 21.9131C19.5747 21.9131 19.5856 21.9131 19.5935 21.9116C19.941 21.899 20.2383 21.658 20.3229 21.3199L21.888 15.0591C21.9929 14.6397 21.7393 14.2154 21.3183 14.1106Z" fill="#B5C0CB"/>
<path d="M11.9287 14.1106C11.5029 14.0058 11.085 14.2593 10.9786 14.6803L10.0661 18.3335L9.35084 16.1876C9.13799 15.549 8.07986 15.549 7.86547 16.1876L7.15019 18.3335L6.2377 14.6803C6.13285 14.2592 5.7024 14.0041 5.28918 14.1106C4.86811 14.2154 4.61455 14.6412 4.71947 15.0591L6.28466 21.3199C6.36918 21.6565 6.66654 21.899 7.01402 21.9116C7.42878 21.9288 7.67765 21.7065 7.78726 21.3778L8.609 18.9095L9.43074 21.3778C9.53874 21.6987 9.83772 21.9131 10.1742 21.9131C10.1836 21.9131 10.1945 21.9131 10.2039 21.9116C10.5514 21.899 10.8487 21.658 10.9332 21.3199L12.4984 15.0591C12.6033 14.6397 12.3497 14.2154 11.9287 14.1106Z" fill="#B5C0CB"/>
<path d="M30.7095 14.1106C30.2822 14.0058 29.8643 14.2593 29.761 14.6803L28.8485 18.3335L28.1332 16.1876C27.9203 15.549 26.8622 15.549 26.6478 16.1876L25.9326 18.3335L25.0201 14.6803C24.9168 14.2592 24.4848 14.0041 24.0715 14.1106C23.6521 14.2154 23.3985 14.6397 23.5018 15.0591L25.067 21.3199C25.1515 21.6565 25.4489 21.899 25.7964 21.9116C26.197 21.9288 26.46 21.7065 26.5696 21.3778L27.3914 18.9095L28.2131 21.3778C28.3211 21.6987 28.6201 21.9131 28.9565 21.9131C28.9659 21.9131 28.9769 21.9131 28.9847 21.9116C29.3322 21.899 29.6296 21.658 29.7141 21.3199L31.2793 15.0591C31.3841 14.6397 31.1306 14.2154 30.7095 14.1106Z" fill="#B5C0CB"/>
</svg>
