<svg width="36" height="36" viewBox="0 0 36 36" fill="none" xmlns="http://www.w3.org/2000/svg">
<path d="M32.0869 10.9565H3.91302C1.75463 10.9565 0 12.7127 0 14.8696V21.1305C0 23.2873 1.75463 25.0435 3.91302 25.0435H32.0869C34.2454 25.0435 35.9999 23.2873 35.9999 21.1305V14.8696C36 12.7127 34.2454 10.9565 32.0869 10.9565ZM34.4347 21.1305C34.4347 22.4249 33.3814 23.4783 32.0869 23.4783H3.91302C2.61856 23.4783 1.56519 22.4249 1.56519 21.1305V14.8696C1.56519 13.5752 2.61856 12.5218 3.91302 12.5218H32.0869C33.3814 12.5218 34.4347 13.5752 34.4347 14.8696V21.1305Z" fill="#687F96"/>
<path d="M17.9999 3.13037C17.5679 3.13037 17.2173 3.481 17.2173 3.913V11.739C17.2173 12.171 17.5679 12.5217 17.9999 12.5217C18.4319 12.5217 18.7826 12.171 18.7826 11.739V3.91293C18.7826 3.48093 18.4319 3.13037 17.9999 3.13037Z" fill="#687F96"/>
<path d="M17.9999 23.478C17.5679 23.478 17.2173 23.8287 17.2173 24.2607V32.0868C17.2173 32.5188 17.5679 32.8694 17.9999 32.8694C18.4319 32.8694 18.7826 32.5187 18.7826 32.0867V24.2607C18.7826 23.8287 18.4319 23.478 17.9999 23.478Z" fill="#687F96"/>
<path d="M25.7572 11.5309C24.3235 6.34843 21.3527 3.13037 18 3.13037C14.6473 3.13037 11.6765 6.34843 10.2428 11.5309C10.1269 11.9473 10.3711 12.3776 10.7875 12.4935C11.2085 12.6077 11.6374 12.3636 11.7501 11.9473C12.9694 7.54267 15.4237 4.69556 18 4.69556C20.5763 4.69556 23.0306 7.54267 24.2514 11.9472C24.3454 12.2947 24.66 12.5216 25.0043 12.5216C25.0732 12.5216 25.142 12.5122 25.2124 12.4934C25.6289 12.3792 25.8731 11.9472 25.7572 11.5309Z" fill="#687F96"/>
<path d="M25.2125 23.5066C24.7914 23.3939 24.3626 23.6365 24.2499 24.0528C23.0306 28.4573 20.5764 31.3044 18 31.3044C15.4236 31.3044 12.9694 28.4573 11.7501 24.0528C11.6374 23.6365 11.2116 23.3939 10.7875 23.5066C10.3711 23.6208 10.1269 24.0528 10.2428 24.4692C11.6766 29.6516 14.6473 32.8697 18 32.8697C21.3527 32.8697 24.3235 29.6516 25.7572 24.4692C25.873 24.0528 25.6289 23.6224 25.2125 23.5066Z" fill="#687F96"/>
<path d="M31.3059 11.39C28.7702 6.29524 23.6723 3.13037 17.9999 3.13037C12.3276 3.13037 7.22972 6.29524 4.69407 11.3916C4.50155 11.7781 4.65966 12.2477 5.04624 12.4402C5.42975 12.6328 5.90239 12.4746 6.09491 12.0881C8.36445 7.52858 12.9255 4.69556 17.9999 4.69556C23.0743 4.69556 27.6354 7.52858 29.9065 12.0881C30.0427 12.3619 30.3182 12.5216 30.6062 12.5216C30.7236 12.5216 30.8425 12.495 30.9537 12.4386C31.3403 12.2462 31.4984 11.7766 31.3059 11.39Z" fill="#687F96"/>
<path d="M30.9537 23.5596C30.5686 23.3687 30.0975 23.5236 29.905 23.9118C27.6355 28.4713 23.0744 31.3043 18 31.3043C12.9256 31.3043 8.36445 28.4713 6.09491 23.9134C5.90239 23.5252 5.42967 23.3703 5.04624 23.5613C4.65966 23.7538 4.50155 24.2234 4.69407 24.6099C7.22972 29.7047 12.3276 32.8696 17.9999 32.8696C23.6723 32.8696 28.7702 29.7047 31.3059 24.6084C31.4984 24.2217 31.3403 23.7522 30.9537 23.5596Z" fill="#687F96"/>
<path d="M21.3183 14.1106C20.8925 14.0058 20.473 14.2593 20.3697 14.6803L19.4572 18.3335L18.742 16.1876C18.5291 15.549 17.471 15.549 17.2566 16.1876L16.5413 18.3335L15.6288 14.6803C15.5255 14.2592 15.0935 14.0041 14.6803 14.1106C14.2592 14.2154 14.0057 14.6412 14.1106 15.0591L15.6758 21.3199C15.7603 21.6565 16.0577 21.899 16.4051 21.9116C16.8137 21.9288 17.0688 21.7065 17.1784 21.3778L18.0001 18.9095L18.8219 21.3778C18.9299 21.6987 19.2288 21.9131 19.5653 21.9131C19.5747 21.9131 19.5856 21.9131 19.5935 21.9116C19.941 21.899 20.2383 21.658 20.3229 21.3199L21.888 15.0591C21.9929 14.6397 21.7393 14.2154 21.3183 14.1106Z" fill="#687F96"/>
<path d="M11.9286 14.1106C11.5028 14.0058 11.0849 14.2593 10.9785 14.6803L10.066 18.3335L9.35072 16.1876C9.13787 15.549 8.07974 15.549 7.86535 16.1876L7.15007 18.3335L6.23758 14.6803C6.13273 14.2592 5.70228 14.0041 5.28906 14.1106C4.86799 14.2154 4.61443 14.6412 4.71935 15.0591L6.28454 21.3199C6.36906 21.6565 6.66642 21.899 7.0139 21.9116C7.42866 21.9288 7.67753 21.7065 7.78714 21.3778L8.60888 18.9095L9.43062 21.3778C9.53862 21.6987 9.8376 21.9131 10.1741 21.9131C10.1835 21.9131 10.1944 21.9131 10.2038 21.9116C10.5513 21.899 10.8486 21.658 10.9331 21.3199L12.4983 15.0591C12.6032 14.6397 12.3496 14.2154 11.9286 14.1106Z" fill="#687F96"/>
<path d="M30.7096 14.1106C30.2823 14.0058 29.8644 14.2593 29.7611 14.6803L28.8486 18.3335L28.1333 16.1876C27.9204 15.549 26.8623 15.549 26.6479 16.1876L25.9327 18.3335L25.0202 14.6803C24.9169 14.2592 24.4849 14.0041 24.0716 14.1106C23.6522 14.2154 23.3986 14.6397 23.5019 15.0591L25.0671 21.3199C25.1516 21.6565 25.449 21.899 25.7965 21.9116C26.1971 21.9288 26.4601 21.7065 26.5697 21.3778L27.3915 18.9095L28.2132 21.3778C28.3212 21.6987 28.6202 21.9131 28.9566 21.9131C28.966 21.9131 28.977 21.9131 28.9848 21.9116C29.3323 21.899 29.6297 21.658 29.7142 21.3199L31.2794 15.0591C31.3842 14.6397 31.1307 14.2154 30.7096 14.1106Z" fill="#687F96"/>
</svg>
