<?xml version="1.0"?>
<svg xmlns="http://www.w3.org/2000/svg" height="512px" viewBox="-56 0 512 512" width="512px"><g><path d="m399.800781 95.011719c-.089843-1.453125-.375-2.851563-.855469-4.226563-.175781-.511718-.308593-1.015625-.535156-1.503906-.773437-1.65625-1.746094-3.226562-3.082031-4.570312-.007813-.007813-.011719-.019532-.023437-.027344l-79.988282-79.992188c-.007812-.007812-.019531-.011718-.03125-.023437-1.347656-1.34375-2.925781-2.316407-4.585937-3.09375-.464844-.214844-.949219-.339844-1.4375-.511719-1.414063-.5-2.855469-.789062-4.351563-.878906-.316406-.019532-.585937-.183594-.910156-.183594h-224c-8.835938 0-16 7.164062-16 16v64h-48c-8.835938 0-16 7.164062-16 16v400c0 8.835938 7.164062 16 16 16h288c8.835938 0 16-7.164062 16-16s-7.164062-16-16-16h-272v-368h32v320c0 8.835938 7.164062 16 16 16h304c8.835938 0 16-7.164062 16-16v-336c0-.351562-.175781-.640625-.199219-.988281zm-79.800781-40.386719 25.375 25.375h-25.375zm-224 361.375v-384h192v64c0 8.835938 7.164062 16 16 16h64v304zm0 0" data-original="#000000" class="active-path" data-old_color="#000000" fill="#FFFFFF"/><path d="m304 208h-144c-8.835938 0-16-7.164062-16-16s7.164062-16 16-16h144c8.835938 0 16 7.164062 16 16s-7.164062 16-16 16zm0 0" data-original="#000000" class="active-path" data-old_color="#000000" fill="#FFFFFF"/><path d="m304 272h-144c-8.835938 0-16-7.164062-16-16s7.164062-16 16-16h144c8.835938 0 16 7.164062 16 16s-7.164062 16-16 16zm0 0" data-original="#000000" class="active-path" data-old_color="#000000" fill="#FFFFFF"/><path d="m304 336h-144c-8.835938 0-16-7.164062-16-16s7.164062-16 16-16h144c8.835938 0 16 7.164062 16 16s-7.164062 16-16 16zm0 0" data-original="#000000" class="active-path" data-old_color="#000000" fill="#FFFFFF"/></g> </svg>
