<svg width="22" height="20" viewBox="0 0 22 20" fill="none" xmlns="http://www.w3.org/2000/svg">
<path d="M10.9997 13.7061C10.4406 13.7061 9.97192 14.1747 9.97192 14.7339C9.97192 15.293 10.4406 15.7617 10.9997 15.7617C11.5383 15.7617 12.0276 15.293 12.0029 14.7586C12.0276 14.1706 11.563 13.7061 10.9997 13.7061Z" fill="#E07171" stroke="#E07171" stroke-width="0.5"/>
<path d="M20.5133 17.3489C21.1588 16.2347 21.1629 14.9067 20.5215 13.7967L14.0832 2.64682C13.446 1.52443 12.2948 0.858398 11.0039 0.858398C9.71291 0.858398 8.56175 1.52854 7.92449 2.64271L1.47796 13.8049C0.836595 14.9273 0.840706 16.2635 1.49029 17.3776C2.13166 18.4795 3.27871 19.1414 4.56144 19.1414H17.4216C18.7085 19.1414 19.8637 18.4712 20.5133 17.3489ZM19.1155 16.543C18.7578 17.1597 18.1247 17.5256 17.4175 17.5256H4.55733C3.85841 17.5256 3.22938 17.168 2.87992 16.5636C2.52634 15.951 2.52223 15.2192 2.8758 14.6025L9.32234 3.44441C9.6718 2.83183 10.2967 2.47003 11.0039 2.47003C11.7069 2.47003 12.3359 2.83594 12.6854 3.44852L19.1278 14.6066C19.4732 15.2069 19.469 15.9305 19.1155 16.543Z" fill="#E07171" stroke="#E07171" stroke-width="0.5"/>
<path d="M10.7449 6.49093C10.2556 6.63072 9.95139 7.07474 9.95139 7.61332C9.97605 7.93811 9.99661 8.26702 10.0213 8.59181C10.0912 9.82931 10.1611 11.0422 10.231 12.2797C10.2556 12.699 10.5804 13.0032 10.9998 13.0032C11.4191 13.0032 11.748 12.6785 11.7686 12.255C11.7686 12.0001 11.7686 11.7657 11.7933 11.5067C11.8385 10.7132 11.8878 9.91976 11.933 9.12628C11.9577 8.61237 12.0029 8.09845 12.0276 7.58454C12.0276 7.39953 12.0029 7.23508 11.933 7.07063C11.7234 6.61016 11.2341 6.37581 10.7449 6.49093Z" fill="#E07171" stroke="#E07171" stroke-width="0.5"/>
</svg>
