<svg width="140" height="30" viewBox="0 0 140 30" fill="none" xmlns="http://www.w3.org/2000/svg">
<path fill-rule="evenodd" clip-rule="evenodd" d="M5.50326 10.2656C4.03895 11.0425 0.566072 13.4352 0.0404019 18.8419C-0.231878 21.6593 0.875799 24.2901 3.25043 26.4652C5.01068 28.0726 6.86448 28.8818 7.05479 28.9649C7.28227 29.0486 21.7056 29.046 29.0865 29.0446C29.8993 29.0445 30.6267 29.0443 31.2403 29.0443C34.6288 27.9774 37.3132 26.31 38.9277 24.1762C40.392 22.2394 41.0396 19.9503 40.805 17.5369C40.6172 15.5897 39.8569 13.7459 38.7399 12.2233C37.4349 10.0554 33.9623 8.42208 32.2259 8.23555C29.8136 3.25349 26.6974 0.280865 23.2714 0.0219144C20.4931 -0.195705 18.0621 1.24407 16.4008 2.71493C15.6499 3.38809 15.0491 4.06143 14.6455 4.58958C14.6286 4.58216 14.6106 4.5734 14.5917 4.56426C14.5581 4.54793 14.522 4.5304 14.4859 4.51716C13.1813 3.96817 10.8065 3.52287 8.76964 4.64151C6.57333 5.843 5.85044 8.2564 5.62523 10.0586C5.61578 10.1517 5.56889 10.2347 5.50326 10.2656ZM7.85836 11.598C6.5652 12.2506 3.49826 14.0247 3.03403 18.5669C2.79358 20.9338 3.29951 23.144 5.39657 24.9714C6.95107 26.3217 8.11591 26.5293 8.28397 26.5991C8.48487 26.6694 21.2224 26.6672 27.7405 26.6661C28.4583 26.666 29.1006 26.6658 29.6425 26.6658C32.635 25.7695 34.7694 24.841 36.1952 23.0483C37.4883 21.4212 38.0603 19.7342 37.8531 17.7067C37.6872 16.0708 36.7796 14.5218 35.7932 13.2427C34.6408 11.4213 31.8102 10.5214 30.2767 10.3647C28.1464 6.17923 25.8667 3.2096 22.8412 2.99205C20.3876 2.80923 18.477 4.0188 17.0098 5.2545C16.3467 5.82003 15.58 6.858 15.2235 7.3017C15.2087 7.29547 15.1927 7.28811 15.1761 7.28042C15.1464 7.26671 15.1145 7.25199 15.0826 7.24086C13.9305 6.77964 11.8333 6.1694 10.0345 7.10919C8.09493 8.11858 8.16496 9.90998 7.96606 11.4241C7.95772 11.5023 7.91631 11.572 7.85836 11.598Z" fill="white"/>
<path d="M16.3638 16.2622L11.0271 18.9749V22.0475L19.0558 17.8123C19.7642 17.4429 19.7642 15.0815 19.0558 14.712L11.0271 10.4768V13.5494L16.3638 16.2622Z" fill="white"/>
<path d="M30.3904 23.2282C30.6266 22.2837 30.6266 21.8114 30.3904 20.8669H19.9431C19.7046 21.8021 19.7046 22.2697 19.9431 23.2282H30.3904Z" fill="white"/>
<path d="M47.8183 11.1268H53.4948C55.0579 11.1268 56.2919 11.2502 57.1969 11.497C58.1018 11.7301 58.7668 12.1414 59.1919 12.731C59.6169 13.3206 59.8294 14.1364 59.8294 15.1785V20.6081C59.8294 21.6228 59.6306 22.4112 59.233 22.9734C58.8354 23.5218 58.1841 23.9126 57.2791 24.1457C56.3742 24.3651 55.1196 24.4747 53.5154 24.4747H47.8183V11.1268ZM53.3714 22.1918C54.2489 22.1918 54.9071 22.1575 55.3458 22.089C55.7983 22.0067 56.1205 21.8559 56.3125 21.6365C56.5182 21.4171 56.621 21.0743 56.621 20.6081V15.1168C56.621 14.486 56.3673 14.0473 55.86 13.8005C55.3664 13.54 54.5711 13.4097 53.4742 13.4097H51.0268V22.1918H53.3714Z" fill="white"/>
<path d="M67.2945 24.6804C63.7707 24.6804 62.0088 23.6041 62.0088 21.4514V17.8727C62.0088 16.625 62.4064 15.7201 63.2016 15.1579C64.0106 14.5957 65.2515 14.3146 66.9243 14.3146C68.5011 14.3146 69.6528 14.5889 70.3795 15.1373C71.1199 15.6721 71.4901 16.5839 71.4901 17.8727V20.2996H65.0321V21.2046C65.0321 21.7805 65.2378 22.1918 65.6491 22.4386C66.0605 22.6854 66.8009 22.8088 67.8703 22.8088C68.8576 22.8088 69.9682 22.6649 71.2022 22.3769V24.2896C69.9819 24.5502 68.6793 24.6804 67.2945 24.6804ZM68.6313 18.5926V17.1529C68.6313 16.8238 68.4942 16.577 68.22 16.4125C67.9595 16.2479 67.5139 16.1657 66.8831 16.1657C66.1564 16.1657 65.6697 16.2479 65.4229 16.4125C65.1624 16.5907 65.0321 16.8375 65.0321 17.1529V18.5926H68.6313Z" fill="white"/>
<path d="M72.469 14.5203H75.6569L77.837 21.4103L79.9348 14.5203H82.9582L79.2972 24.4747H76.2533L72.469 14.5203Z" fill="white"/>
<path d="M88.7121 24.6804C87.437 24.6804 85.8602 24.557 83.9817 24.3102V21.8627C86.3126 22.2192 87.9032 22.3975 88.7533 22.3975C90.5357 22.3975 91.427 21.9381 91.427 21.0195V20.1557C91.427 19.7169 91.2967 19.381 91.0362 19.1479C90.7894 18.9148 90.3369 18.7983 89.6788 18.7983H88.1157C85.1814 18.7983 83.7143 17.6328 83.7143 15.3019V14.3146C83.7143 13.1492 84.2011 12.2922 85.1746 11.7438C86.1481 11.1953 87.6906 10.9211 89.8022 10.9211C90.8991 10.9211 92.2908 11.0102 93.9773 11.1885V13.5742C91.9069 13.3274 90.4809 13.204 89.6993 13.204C88.6161 13.204 87.8895 13.2931 87.5192 13.4714C87.1216 13.6634 86.9228 13.965 86.9228 14.3763V15.3224C86.9228 16.0217 87.5124 16.3713 88.6916 16.3713H90.2958C91.8177 16.3713 92.9215 16.6524 93.6071 17.2146C94.2926 17.7768 94.6354 18.6337 94.6354 19.7855V20.6699C94.6354 22.2604 94.0664 23.3367 92.9284 23.8989C92.3799 24.1868 91.7698 24.3856 91.0979 24.4953C90.4398 24.6187 89.6445 24.6804 88.7121 24.6804Z" fill="white"/>
<path d="M96.7424 14.5203H99.5807V15.5075C99.7589 15.0688 100.109 14.7603 100.63 14.582C101.151 14.4038 101.925 14.3146 102.954 14.3146C103.817 14.3146 104.51 14.3832 105.031 14.5203C105.566 14.6574 105.97 14.8768 106.244 15.1785C106.505 15.4801 106.683 15.816 106.779 16.1862C106.875 16.5427 106.923 17.0363 106.923 17.6671V20.9372C106.923 21.9244 106.779 22.6854 106.491 23.2202C106.203 23.7549 105.758 24.132 105.154 24.3513C104.565 24.5707 103.756 24.6804 102.727 24.6804C101.74 24.6804 101.027 24.5982 100.588 24.4336C100.15 24.2691 99.8686 23.9469 99.7452 23.467V28.7527H96.7424V14.5203ZM101.802 22.8088C102.391 22.8088 102.837 22.7677 103.139 22.6854C103.44 22.6031 103.646 22.4592 103.756 22.2535C103.865 22.0478 103.92 21.7393 103.92 21.328V17.6465C103.92 17.194 103.872 16.8718 103.776 16.6798C103.68 16.4742 103.488 16.3371 103.2 16.2685C102.913 16.2 102.439 16.1657 101.781 16.1657C101.219 16.1657 100.787 16.2137 100.486 16.3096C100.198 16.4056 99.9989 16.5564 99.8892 16.7621C99.7932 16.9678 99.7452 17.2626 99.7452 17.6465V21.328C99.7452 21.7393 99.7932 22.0478 99.8892 22.2535C99.9989 22.4592 100.198 22.6031 100.486 22.6854C100.774 22.7677 101.212 22.8088 101.802 22.8088Z" fill="white"/>
<path d="M112.093 24.6804C111.161 24.6804 110.461 24.5982 109.995 24.4336C109.543 24.2554 109.221 23.9469 109.029 23.5081C108.85 23.0556 108.761 22.3838 108.761 21.4925C108.761 20.6973 108.857 20.0734 109.049 19.6209C109.255 19.1685 109.577 18.8462 110.016 18.6543C110.468 18.4486 111.085 18.3458 111.867 18.3458H115.24V17.6671C115.24 17.242 115.178 16.9267 115.055 16.721C114.945 16.5153 114.733 16.3713 114.417 16.2891C114.116 16.2068 113.656 16.1657 113.039 16.1657C112.189 16.1657 111.024 16.2479 109.543 16.4125V14.5203C110.626 14.3832 111.894 14.3146 113.348 14.3146C114.623 14.3146 115.603 14.4106 116.289 14.6026C116.988 14.7945 117.489 15.1236 117.79 15.5898C118.092 16.056 118.243 16.7347 118.243 17.6259V24.4747H115.302V23.5698C115.068 23.9674 114.753 24.2485 114.355 24.413C113.958 24.5913 113.204 24.6804 112.093 24.6804ZM113.265 22.8088C113.869 22.8088 114.301 22.7883 114.561 22.7471C114.753 22.7197 114.883 22.6786 114.952 22.6237C115.034 22.5689 115.103 22.4797 115.158 22.3563C115.212 22.2604 115.24 22.1164 115.24 21.9244V19.9911H113.183C112.717 19.9911 112.388 20.0254 112.196 20.094C112.004 20.1488 111.874 20.2722 111.805 20.4642C111.737 20.6424 111.702 20.9646 111.702 21.4308C111.702 21.8833 111.737 22.1987 111.805 22.3769C111.874 22.5552 112.004 22.6717 112.196 22.7266C112.402 22.7814 112.758 22.8088 113.265 22.8088Z" fill="white"/>
<path d="M125.738 24.6804C125.217 24.6804 124.806 24.6667 124.504 24.6393C124.203 24.6256 123.832 24.5913 123.394 24.5365C122.955 24.4816 122.592 24.3856 122.304 24.2485C122.029 24.1114 121.742 23.9057 121.44 23.6315C120.878 23.1653 120.597 22.3701 120.597 21.2457V17.9344C120.597 17.0295 120.802 16.2754 121.214 15.6721C121.364 15.4527 121.584 15.2539 121.872 15.0756C122.173 14.8837 122.475 14.7328 122.777 14.6231C123.024 14.5409 123.353 14.4723 123.764 14.4175C124.175 14.3626 124.539 14.3284 124.854 14.3146H125.944C126.712 14.3146 127.72 14.438 128.967 14.6848V16.6593C127.555 16.3302 126.472 16.1657 125.718 16.1657C124.333 16.1657 123.641 16.6319 123.641 17.5642V21.2252C123.641 22.2809 124.402 22.8088 125.923 22.8088C126.664 22.8088 127.727 22.658 129.111 22.3563V24.3308C127.864 24.5639 126.739 24.6804 125.738 24.6804Z" fill="white"/>
<path d="M135.804 24.6804C132.281 24.6804 130.519 23.6041 130.519 21.4514V17.8727C130.519 16.625 130.916 15.7201 131.711 15.1579C132.52 14.5957 133.761 14.3146 135.434 14.3146C137.011 14.3146 138.163 14.5889 138.889 15.1373C139.63 15.6721 140 16.5839 140 17.8727V20.2996H133.542V21.2046C133.542 21.7805 133.748 22.1918 134.159 22.4386C134.57 22.6854 135.311 22.8088 136.38 22.8088C137.367 22.8088 138.478 22.6649 139.712 22.3769V24.2896C138.492 24.5502 137.189 24.6804 135.804 24.6804ZM137.141 18.5926V17.1529C137.141 16.8238 137.004 16.577 136.73 16.4125C136.469 16.2479 136.024 16.1657 135.393 16.1657C134.666 16.1657 134.18 16.2479 133.933 16.4125C133.672 16.5907 133.542 16.8375 133.542 17.1529V18.5926H137.141Z" fill="white"/>
</svg>
