<svg width="36" height="36" viewBox="0 0 36 36" fill="none" xmlns="http://www.w3.org/2000/svg">
<g clip-path="url(#clip0)">
<path d="M35.2903 31.0158L30.0899 28.0489C30.23 27.588 30.3044 27.1022 30.3044 26.6031V17.3167C30.3044 15.4487 29.2704 13.7615 27.6056 12.9139L20.247 9.16699C19.9979 9.0401 19.74 8.936 19.4766 8.85416V2.10938C19.4766 1.33264 18.8471 0.703125 18.0703 0.703125C17.2936 0.703125 16.6641 1.33264 16.6641 2.10938V8.8157C16.3515 8.90359 16.0455 9.02225 15.7519 9.17276L8.45316 12.9133C6.7956 13.7628 5.76591 15.4476 5.76591 17.3103V26.6097C5.76591 27.1024 5.83869 27.5828 5.97547 28.0388L0.714387 31.0133C0.038453 31.3956 -0.199951 32.2534 0.182374 32.9296C0.440828 33.3869 0.91736 33.644 1.4079 33.644C1.64218 33.644 1.88004 33.5852 2.09867 33.4616L7.52702 30.3923C7.80552 30.6255 8.11204 30.8307 8.44437 31.002L15.7431 34.7607C16.4512 35.1255 17.228 35.3079 18.0052 35.3079C18.7778 35.3079 19.551 35.1274 20.2558 34.7668L27.6144 31.0015C27.9459 30.8318 28.2519 30.6282 28.5301 30.397L33.8967 33.4589C34.1167 33.5844 34.3559 33.644 34.5921 33.644C35.0807 33.644 35.5556 33.3888 35.8149 32.9343C36.2 32.2597 35.9649 31.4008 35.2903 31.0158ZM9.73225 28.5016C9.02033 28.1352 8.57841 27.4101 8.57841 26.6097V17.6699L16.6641 21.6834V32.0718L9.73225 28.5016ZM26.3332 28.4977L19.4766 32.0062V21.5986L23.6349 19.4615C24.3257 19.1063 24.5979 18.2587 24.2427 17.568C23.8879 16.8772 23.0403 16.605 22.3492 16.9599L17.989 19.2011L10.0448 15.2578L17.0346 11.6757C17.3384 11.5203 17.6718 11.4423 18.0052 11.4423C18.3367 11.4423 18.6685 11.5192 18.9709 11.6732L26.3296 15.4201C27.0464 15.7854 27.4919 16.5119 27.4919 17.3167V26.6031C27.4919 27.4062 27.0481 28.1321 26.3332 28.4977Z" fill="white"/>
</g>
<defs>
<clipPath id="clip0">
<rect width="36" height="36" fill="white"/>
</clipPath>
</defs>
</svg>
