<svg width="16" height="16" viewBox="0 0 16 16" fill="none" xmlns="http://www.w3.org/2000/svg">
<g clip-path="url(#clip0)">
<path d="M4.87875 16C5.43175 16 5.87875 15.552 5.87875 15C5.87875 14.448 5.43175 14 4.87875 14H3.41375L6.70675 10.707C7.09775 10.316 7.09775 9.684 6.70675 9.293C6.51175 9.098 6.25575 9 5.99975 9C5.74375 9 5.48775 9.098 5.29275 9.293L1.87875 12.707L1.87875 11C1.87875 10.448 1.43175 10 0.87875 10C0.32575 10 -0.000249863 10.448 -0.000249863 11L-0.000249863 16H4.87875Z" fill="#687F96"/>
<path d="M3 7C3.552 7 4 6.552 4 6V4H6C6.553 4 7 3.552 7 3C7 2.448 6.553 2 6 2H2.001L2 6C2 6.552 2.447 7 3 7Z" fill="#687F96"/>
<path d="M13 9C12.447 9 12 9.448 12 10V12H10C9.447 12 9 12.448 9 13C9 13.552 9.447 14 10 14H14V10C14 9.448 13.553 9 13 9Z" fill="#687F96"/>
<path d="M10.7072 6.70725L14.0002 3.41425V5.00025C14.0002 5.55225 14.4472 6.00025 15.0002 6.00025C15.5532 6.00025 16.0002 5.55225 16.0002 5.00025V0.000249386L11.0002 0.000249386C10.4482 0.000249386 10.0002 0.448249 10.0002 1.00025C10.0002 1.55225 10.4472 2.00025 11.0002 2.00025L12.5862 2.00025L9.29324 5.29225C8.90224 5.68325 8.90224 6.31525 9.29324 6.70625C9.68424 7.09725 10.3162 7.09825 10.7072 6.70725Z" fill="#687F96"/>
</g>
<defs>
<clipPath id="clip0">
<rect width="16" height="16" fill="white"/>
</clipPath>
</defs>
</svg>
