<svg width="16" height="16" viewBox="0 0 16 16" fill="none" xmlns="http://www.w3.org/2000/svg">
<g clip-path="url(#clip0)">
<path d="M2.12101 9C1.56801 9 1.12101 9.448 1.12101 10C1.12101 10.552 1.56801 11 2.12101 11H3.58601L0.293006 14.293C-0.0979941 14.684 -0.0979941 15.316 0.293006 15.707C0.488006 15.902 0.744006 16 1.00001 16C1.25601 16 1.51201 15.902 1.70701 15.707L5.12101 12.293V14C5.12101 14.552 5.56801 15 6.12101 15C6.67401 15 7.00001 14.552 7.00001 14V9H2.12101Z" fill="#687F96"/>
<path d="M3 7C3.552 7 4 6.552 4 6V4H6C6.553 4 7 3.552 7 3C7 2.448 6.553 2 6 2H2.001L2 6C2 6.552 2.447 7 3 7Z" fill="#687F96"/>
<path d="M13 9C12.447 9 12 9.448 12 10V12H10C9.447 12 9 12.448 9 13C9 13.552 9.447 14 10 14H14V10C14 9.448 13.553 9 13 9Z" fill="#687F96"/>
<path d="M14.293 0.292995L11 3.58599V1.99999C11 1.44799 10.553 0.999995 10 0.999995C9.447 0.999995 9 1.44799 9 1.99999V6.99999H14C14.552 6.99999 15 6.55199 15 5.99999C15 5.44799 14.553 4.99999 14 4.99999H12.414L15.707 1.70799C16.098 1.31699 16.098 0.684995 15.707 0.293995C15.316 -0.0970054 14.684 -0.0980054 14.293 0.292995Z" fill="#687F96"/>
</g>
<defs>
<clipPath id="clip0">
<rect width="16" height="16" fill="white"/>
</clipPath>
</defs>
</svg>
