<svg width="22" height="26" viewBox="0 0 22 26" fill="none" xmlns="http://www.w3.org/2000/svg">
<path d="M10.5157 9.43868C12.4787 9.43868 14.021 7.75853 14.021 5.7324C14.021 3.7063 12.4787 1.97668 10.5158 1.97668C8.55281 1.97668 7.01049 3.65688 7.01049 5.68298C7.01049 7.70908 8.59955 9.43868 10.5157 9.43868ZM13.0863 14.4299L14.208 22.6332L11.4505 25.6969C11.0766 26.0923 10.5158 26.0923 10.1419 25.7463L7.01049 22.6332L8.13218 14.5287C7.57135 14.2817 7.104 13.9357 6.6366 13.5404C3.73891 15.0229 1.86946 18.0867 1.86946 21.4966C1.86946 22.0402 1.44884 22.485 0.934721 22.485C0.420628 22.485 0 22.0402 0 21.4966C0 17.049 2.61726 13.0956 6.49641 11.4648L7.104 11.2178L7.52461 11.7613C8.22567 12.6509 9.30059 13.145 10.469 13.145C11.6375 13.145 12.6656 12.6509 13.4134 11.7613L13.8341 11.2178L14.4417 11.4648C18.3207 13.145 20.9381 17.049 20.9381 21.4966C20.9381 22.0402 20.5174 22.485 20.0033 22.485C19.4893 22.485 19.0686 22.0402 19.0686 21.4966C19.0686 18.0867 17.1992 15.0229 14.3014 13.5404C13.9275 13.8863 13.5069 14.1828 13.0863 14.4299ZM9.95491 15.0229L9.0202 21.8918L10.7494 23.6215L12.245 21.9412L11.3103 15.0229C11.0299 15.0723 10.7962 15.0723 10.5157 15.0723C10.2821 15.0723 10.0951 15.0723 9.95491 15.0229ZM10.5158 11.4154C7.52461 11.4154 5.14103 8.84569 5.14103 5.7324C5.14103 2.61913 7.57135 0 10.5158 0C13.4602 0 15.8905 2.56971 15.8905 5.68298C15.8905 8.79629 13.5069 11.4154 10.5158 11.4154Z" fill="#687F96"/>
</svg>
