<svg width="22" height="22" viewBox="0 0 22 22" fill="none" xmlns="http://www.w3.org/2000/svg">
<g clip-path="url(#clip0)">
<path d="M20.8739 8.69154L19.3297 8.42958C19.1689 7.91026 18.9621 7.40932 18.7093 6.93137L19.6193 5.65834C20.0053 5.11604 19.9456 4.37613 19.4722 3.90736L18.1027 2.53783C17.8453 2.28047 17.5052 2.138 17.1422 2.138C16.8572 2.138 16.5861 2.22532 16.3563 2.39077L15.0787 3.30072C14.5823 3.03877 14.063 2.82277 13.5253 2.66192L13.2679 1.13613C13.1576 0.478934 12.5924 0.000976562 11.926 0.000976562H9.99116C9.32478 0.000976562 8.7595 0.478934 8.6492 1.13613L8.38265 2.69868C7.86793 2.85953 7.36699 3.07094 6.88903 3.3283L5.6252 2.41834C5.39541 2.25289 5.11967 2.16557 4.83473 2.16557C4.47167 2.16557 4.12699 2.30804 3.87422 2.5654L2.50009 3.93494C2.03132 4.4037 1.96698 5.14362 2.35302 5.68592L3.27218 6.97732C3.01941 7.45988 2.8172 7.96081 2.66094 8.48013L1.13515 8.7375C0.477958 8.84779 0 9.41307 0 10.0795V12.0143C0 12.6806 0.477958 13.2459 1.13515 13.3562L2.69771 13.6228C2.85856 14.1375 3.06996 14.6384 3.32732 15.1164L2.42196 16.3756C2.03592 16.9179 2.09566 17.6578 2.56903 18.1266L3.93856 19.4961C4.19592 19.7535 4.53601 19.896 4.89907 19.896C5.18401 19.896 5.45516 19.8087 5.68494 19.6432L6.97635 18.7241C7.44052 18.9676 7.92767 19.1653 8.42861 19.3215L8.68597 20.8657C8.79627 21.5229 9.36155 22.0008 10.0279 22.0008H11.9673C12.6337 22.0008 13.199 21.5229 13.3093 20.8657L13.5713 19.3215C14.0906 19.1607 14.5915 18.9538 15.0695 18.7011L16.3425 19.611C16.5723 19.7765 16.848 19.8638 17.133 19.8638C17.496 19.8638 17.8361 19.7213 18.0935 19.464L19.463 18.0944C19.9318 17.6257 19.9961 16.8858 19.6101 16.3435L18.7001 15.0658C18.9529 14.5833 19.1643 14.0824 19.3205 13.5676L20.8647 13.3103C21.5219 13.2 21.9999 12.6347 21.9999 11.9683V10.0335C22.0091 9.36711 21.5311 8.80184 20.8739 8.69154ZM20.7682 11.9683C20.7682 12.0281 20.7268 12.0786 20.6671 12.0878L18.7369 12.4095C18.4933 12.4509 18.3003 12.6301 18.2405 12.8645C18.0659 13.5401 17.7993 14.1881 17.4409 14.7901C17.3168 15.0015 17.326 15.2635 17.4685 15.4657L18.6036 17.065C18.6358 17.111 18.6312 17.1799 18.5898 17.2212L17.2203 18.5908C17.1881 18.623 17.1559 18.6275 17.133 18.6275C17.1054 18.6275 17.0824 18.6184 17.064 18.6046L15.4693 17.4694C15.2717 17.327 15.0051 17.3178 14.7937 17.4418C14.1917 17.8003 13.5437 18.0669 12.8681 18.2415C12.6291 18.3012 12.4499 18.4989 12.4131 18.7378L12.0868 20.6681C12.0776 20.7278 12.0271 20.7692 11.9673 20.7692H10.0325C9.97278 20.7692 9.92223 20.7278 9.91304 20.6681L9.59133 18.7378C9.54997 18.4943 9.37074 18.3012 9.13635 18.2415C8.47916 18.0715 7.84495 17.8095 7.2521 17.4694C7.15559 17.4143 7.04529 17.3867 6.93959 17.3867C6.8155 17.3867 6.68682 17.4235 6.58112 17.5016L4.9726 18.6459C4.94962 18.6597 4.92665 18.6689 4.90367 18.6689C4.88528 18.6689 4.84852 18.6643 4.81635 18.6321L3.44681 17.2626C3.40545 17.2212 3.40086 17.1569 3.43303 17.1064L4.56358 15.5208C4.70605 15.3186 4.71524 15.0521 4.59116 14.8406C4.23269 14.2432 3.95694 13.5952 3.7823 12.9196C3.71796 12.6852 3.52494 12.506 3.28596 12.4646L1.34196 12.1338C1.28221 12.1246 1.24085 12.074 1.24085 12.0143V10.0795C1.24085 10.0197 1.28221 9.96916 1.34196 9.95996L3.25839 9.63826C3.50196 9.5969 3.69958 9.41767 3.75933 9.17869C3.92937 8.50311 4.19133 7.85052 4.5452 7.24847C4.66928 7.03707 4.6555 6.77511 4.51303 6.57749L3.36869 4.96898C3.33652 4.92302 3.34111 4.85409 3.38247 4.81273L4.75201 3.44319C4.78418 3.41102 4.81635 3.40643 4.83933 3.40643C4.8669 3.40643 4.88988 3.41562 4.90826 3.42941L6.4938 4.55996C6.69601 4.70243 6.96256 4.71162 7.17397 4.58753C7.77142 4.22907 8.41942 3.95332 9.09499 3.77868C9.32938 3.71434 9.50861 3.52132 9.54997 3.28234L9.88087 1.33834C9.89006 1.27859 9.94061 1.23723 10.0004 1.23723H11.9352C11.9949 1.23723 12.0455 1.27859 12.0547 1.33834L12.3764 3.25477C12.4177 3.49834 12.597 3.69596 12.8359 3.7557C13.5299 3.93034 14.1917 4.20149 14.8075 4.56456C15.0189 4.68864 15.2809 4.67945 15.4831 4.53698L17.0686 3.39724C17.0916 3.38345 17.1146 3.37426 17.1376 3.37426C17.1559 3.37426 17.1927 3.37885 17.2249 3.41102L18.5944 4.78056C18.6358 4.82192 18.6404 4.88626 18.6082 4.93681L17.473 6.53154C17.3306 6.72915 17.3214 6.99571 17.4455 7.20711C17.8039 7.80915 18.0705 8.45715 18.2451 9.13273C18.3049 9.37171 18.5025 9.55094 18.7415 9.58771L20.6717 9.91401C20.7314 9.9232 20.7728 9.97375 20.7728 10.0335V11.9683H20.7682Z" fill="#687F96"/>
<path d="M11.0022 6.25C8.38259 6.25 6.25476 8.37783 6.25476 10.9974C6.25476 13.617 8.38259 15.7448 11.0022 15.7448C13.6217 15.7448 15.7496 13.617 15.7496 10.9974C15.7496 8.37783 13.6217 6.25 11.0022 6.25ZM11.0022 14.504C9.06736 14.504 7.49561 12.9322 7.49561 10.9974C7.49561 9.0626 9.06736 7.49085 11.0022 7.49085C12.937 7.49085 14.5087 9.0626 14.5087 10.9974C14.5087 12.9322 12.937 14.504 11.0022 14.504Z" fill="#687F96"/>
</g>
<defs>
<clipPath id="clip0">
<rect width="22" height="22" fill="white"/>
</clipPath>
</defs>
</svg>
