<svg width="30" height="30" viewBox="0 0 30 30" fill="none" xmlns="http://www.w3.org/2000/svg">
<path d="M29.4099 13.9518L24.5922 11.543L29.4099 9.13403C30.2717 8.70327 30.2726 7.46913 29.4099 7.03769L15.5817 0.123597C15.2517 -0.0411989 14.8635 -0.0411989 14.5334 0.123597L0.705246 7.03769C-0.156499 7.46868 -0.157415 8.70281 0.705246 9.13403L5.52301 11.543L0.705246 13.9518C-0.156499 14.3828 -0.157415 15.6167 0.705246 16.0481L5.52301 18.4571L0.705246 20.8659C-0.156499 21.2969 -0.157415 22.5308 0.705246 22.9622L14.5334 29.8763C14.8628 30.0409 15.251 30.0416 15.5817 29.8763L29.4099 22.9622C30.2717 22.5312 30.2726 21.2973 29.4099 20.8659L24.5922 18.4571L29.4099 16.0481C30.2717 15.6174 30.2726 14.3832 29.4099 13.9518ZM15.0576 2.48201L26.2653 8.08597L15.0576 13.6897L3.84987 8.08597L15.0576 2.48201ZM26.2653 21.9142L15.0576 27.5179L3.84987 21.9142L8.14349 19.7672L14.5334 22.9622C14.863 23.1268 15.251 23.1275 15.5817 22.9622L21.9717 19.7672L26.2653 21.9142ZM15.0576 20.6038L3.84987 15.0001L8.14349 12.8531L14.5334 16.0481C14.863 16.2127 15.251 16.2134 15.5817 16.0481L21.9717 12.8531L26.2653 15.0001L15.0576 20.6038Z" fill="white"/>
</svg>
