<svg width="16" height="16" viewBox="0 0 16 16" fill="none" xmlns="http://www.w3.org/2000/svg">
<g clip-path="url(#clip0)">
<path d="M14.9182 2.47059H11.5522V1.68301C11.5522 0.754902 10.7973 0 9.86923 0H6.13066C5.20256 0 4.44766 0.754902 4.44766 1.68301V2.47059H1.08164C0.758114 2.47059 0.493408 2.73529 0.493408 3.05882C0.493408 3.38235 0.758114 3.64706 1.08164 3.64706H1.97707V13.9477C1.97707 15.0784 2.89537 16 4.02936 16H11.9738C13.1045 16 14.0261 15.0817 14.0261 13.9477V3.12941H12.8496V13.9477C12.8496 14.4314 12.4575 14.8235 11.9738 14.8235H4.02609C3.54243 14.8235 3.15027 14.4314 3.15027 13.9477V3.64706H14.915C15.2418 3.64706 15.5065 3.38235 15.5065 3.05882C15.5065 2.73529 15.2418 2.47059 14.9182 2.47059ZM10.379 2.47059H5.62413V1.68301C5.62413 1.40523 5.84962 1.17647 6.13066 1.17647H9.87249C10.1503 1.17647 10.379 1.40196 10.379 1.68301V2.47059Z" fill="#687F96"/>
<path d="M6.20738 5.4707C5.81832 5.4707 5.5 5.70277 5.5 5.98641V12.4844C5.5 12.768 5.81832 13.0001 6.20738 13.0001C6.59644 13.0001 6.91476 12.768 6.91476 12.4844V5.98641C6.91476 5.70277 6.59644 5.4707 6.20738 5.4707Z" fill="#687F96"/>
<path d="M9.90733 5.4707C9.51827 5.4707 9.19995 5.70277 9.19995 5.98641V12.4844C9.19995 12.768 9.51827 13.0001 9.90733 13.0001C10.2964 13.0001 10.6147 12.768 10.6147 12.4844V5.98641C10.6147 5.70277 10.2964 5.4707 9.90733 5.4707Z" fill="#687F96"/>
</g>
<defs>
<clipPath id="clip0">
<rect width="16" height="16" fill="white"/>
</clipPath>
</defs>
</svg>
