<svg width="16" height="16" viewBox="0 0 16 16" fill="none" xmlns="http://www.w3.org/2000/svg">
<g clip-path="url(#clip0)">
<path d="M14.9183 2.47059H11.5523V1.68301C11.5523 0.754902 10.7974 0 9.86926 0H6.13069C5.20259 0 4.44769 0.754902 4.44769 1.68301V2.47059H1.08167C0.758145 2.47059 0.493439 2.73529 0.493439 3.05882C0.493439 3.38235 0.758145 3.64706 1.08167 3.64706H1.9771V13.9477C1.9771 15.0784 2.8954 16 4.02939 16H11.9738C13.1046 16 14.0261 15.0817 14.0261 13.9477V3.12941H12.8496V13.9477C12.8496 14.4314 12.4575 14.8235 11.9738 14.8235H4.02612C3.54246 14.8235 3.1503 14.4314 3.1503 13.9477V3.64706H14.915C15.2418 3.64706 15.5065 3.38235 15.5065 3.05882C15.5065 2.73529 15.2418 2.47059 14.9183 2.47059ZM10.3791 2.47059H5.62416V1.68301C5.62416 1.40523 5.84965 1.17647 6.13069 1.17647H9.87252C10.1503 1.17647 10.3791 1.40196 10.3791 1.68301V2.47059Z" fill="white"/>
<path d="M6.20738 5.47064C5.81832 5.47064 5.5 5.70271 5.5 5.98635V12.4843C5.5 12.7679 5.81832 13 6.20738 13C6.59644 13 6.91476 12.7679 6.91476 12.4843V5.98635C6.91476 5.70271 6.59644 5.47064 6.20738 5.47064Z" fill="white"/>
<path d="M9.90739 5.47064C9.51833 5.47064 9.20001 5.70271 9.20001 5.98635V12.4843C9.20001 12.7679 9.51833 13 9.90739 13C10.2964 13 10.6148 12.7679 10.6148 12.4843V5.98635C10.6148 5.70271 10.2964 5.47064 9.90739 5.47064Z" fill="white"/>
</g>
<defs>
<clipPath id="clip0">
<rect width="16" height="16" fill="white"/>
</clipPath>
</defs>
</svg>
