<svg width="16" height="16" viewBox="0 0 16 16" fill="none" xmlns="http://www.w3.org/2000/svg">
<g clip-path="url(#clip0)">
<path d="M14.9183 2.47057H11.5523V1.68299C11.5523 0.754887 10.7974 -1.52588e-05 9.86929 -1.52588e-05H6.13072C5.20262 -1.52588e-05 4.44772 0.754887 4.44772 1.68299V2.47057H1.0817C0.758175 2.47057 0.493469 2.73528 0.493469 3.05881C0.493469 3.38234 0.758175 3.64704 1.0817 3.64704H1.97713V13.9477C1.97713 15.0784 2.89543 16 4.02942 16H11.9739C13.1046 16 14.0261 15.0817 14.0261 13.9477V3.1294H12.8497V13.9477C12.8497 14.4314 12.4575 14.8235 11.9739 14.8235H4.02615C3.54249 14.8235 3.15033 14.4314 3.15033 13.9477V3.64704H14.915C15.2418 3.64704 15.5065 3.38234 15.5065 3.05881C15.5065 2.73528 15.2418 2.47057 14.9183 2.47057ZM10.3791 2.47057H5.62419V1.68299C5.62419 1.40521 5.84968 1.17646 6.13072 1.17646H9.87255C10.1503 1.17646 10.3791 1.40195 10.3791 1.68299V2.47057Z" fill="#AA1212"/>
<path d="M6.20738 5.47063C5.81832 5.47063 5.5 5.7027 5.5 5.98634V12.4843C5.5 12.7679 5.81832 13 6.20738 13C6.59644 13 6.91476 12.7679 6.91476 12.4843V5.98634C6.91476 5.7027 6.59644 5.47063 6.20738 5.47063Z" fill="#AA1212"/>
<path d="M9.90739 5.47063C9.51833 5.47063 9.20001 5.7027 9.20001 5.98634V12.4843C9.20001 12.7679 9.51833 13 9.90739 13C10.2964 13 10.6148 12.7679 10.6148 12.4843V5.98634C10.6148 5.7027 10.2964 5.47063 9.90739 5.47063Z" fill="#AA1212"/>
</g>
<defs>
<clipPath id="clip0">
<rect width="16" height="16" fill="white"/>
</clipPath>
</defs>
</svg>
