<svg width="610" height="123" xmlns="http://www.w3.org/2000/svg" xmlns:xlink="http://www.w3.org/1999/xlink" fill="none" overflow="hidden"><path d="M206.3 37.59 231.14 37.59C237.98 37.59 243.38 38.13 247.34 39.21 251.3 40.23 254.21 42.03 256.07 44.61 257.93 47.19 258.86 50.76 258.86 55.32L258.86 79.08C258.86 83.52 257.99 86.97 256.25 89.43 254.51 91.83 251.66 93.54 247.7 94.56 243.74 95.52 238.25 96 231.23 96L206.3 96 206.3 37.59ZM230.6 86.01C234.44 86.01 237.32 85.86 239.24 85.56 241.22 85.2 242.63 84.54 243.47 83.58 244.37 82.62 244.82 81.12 244.82 79.08L244.82 55.05C244.82 52.29 243.71 50.37 241.49 49.29 239.33 48.15 235.85 47.58 231.05 47.58L220.34 47.58 220.34 86.01 230.6 86.01ZM291.526 96.9C276.106 96.9 268.396 92.19 268.396 82.77L268.396 67.11C268.396 61.65 270.136 57.69 273.616 55.23 277.156 52.77 282.586 51.54 289.906 51.54 296.806 51.54 301.846 52.74 305.026 55.14 308.266 57.48 309.886 61.47 309.886 67.11L309.886 77.73 281.626 77.73 281.626 81.69C281.626 84.21 282.526 86.01 284.326 87.09 286.126 88.17 289.366 88.71 294.046 88.71 298.366 88.71 303.226 88.08 308.626 86.82L308.626 95.19C303.286 96.33 297.586 96.9 291.526 96.9ZM297.376 70.26 297.376 63.96C297.376 62.52 296.776 61.44 295.576 60.72 294.436 60 292.486 59.64 289.726 59.64 286.546 59.64 284.416 60 283.336 60.72 282.196 61.5 281.626 62.58 281.626 63.96L281.626 70.26 297.376 70.26ZM314.17 52.44 328.12 52.44 337.66 82.59 346.84 52.44 360.07 52.44 344.05 96 330.73 96 314.17 52.44ZM385.249 96.9C379.669 96.9 372.769 96.36 364.549 95.28L364.549 84.57C374.749 86.13 381.709 86.91 385.429 86.91 393.229 86.91 397.129 84.9 397.129 80.88L397.129 77.1C397.129 75.x 396.559 73.71 395.419 72.69 394.339 71.67 392.359 71.16 389.479 71.16L382.639 71.16C369.799 71.16 363.379 66.06 363.379 55.86L363.379 51.54C363.379 46.44 365.509 42.69 369.769 40.29 374.029 37.89 380.779 36.69 390.019 36.69 394.819 36.69 400.909 37.08 408.289 37.86L408.289 48.3C399.229 47.22 392.989 46.68 389.569 46.68 384.829 46.68 381.649 47.07 380.029 47.85 378.289 48.69 377.419 50.01 377.419 51.81L377.419 55.95C377.419 59.01 379.999 60.54 385.159 60.54L392.179 60.54C398.839 60.54 403.669 61.77 406.669 64.23 409.669 66.69 411.169 70.44 411.169 75.48L411.169 79.35C411.169 86.31 408.679 91.02 403.699 93.48 401.299 94.74 398.629 95.61 395.689 96.09 392.809 96.63 389.329 96.9 385.249 96.9ZM420.389 52.44 432.809 52.44 432.809 56.76C433.589 54.84 435.119 53.49 437.399 52.71 439.679 51.93 443.069 51.54 447.569 51.54 451.349 51.54 454.379 51.84 456.659 52.44 458.999 53.04 460.769 54 461.969 55.32 463.109 56.64 463.889 58.11 464.309 59.73 464.729 61.29 464.939 63.45 464.939 66.21L464.939 80.52C464.939 84.84 464.309 88.17 463.049 90.51 461.789 92.85 459.839 94.5 457.199 95.46 454.619 96.42 451.079 96.9 446.579 96.9 442.259 96.9 439.139 96.54 437.219 95.82 435.299 95.1 434.069 93.69 433.529 91.59L433.529 114.72 420.389 114.72 420.389 52.44ZM442.529 88.71C445.109 88.71 447.059 88.53 448.379 88.17 449.699 87.81 450.599 87.18 451.079 86.28 451.559 85.38 451.799 84.03 451.799 82.23L451.799 66.12C451.799 64.14 451.589 62.73 451.169 61.89 450.749 60.99 449.909 60.39 448.649 60.09 447.389 59.79 445.319 59.64 442.439 59.64 439.979 59.64 438.089 59.85 436.769 60.27 435.509 60.69 434.639 61.35 434.159 62.25 433.739 63.15 433.529 64.44 433.529 66.12L433.529 82.23C433.529 84.03 433.739 85.38 434.159 86.28 434.639 87.18 435.509 87.81 436.769 88.17 438.029 88.53 439.949 88.71 442.529 88.71ZM487.563 96.9C483.483 96.9 480.423 96.54 478.383 95.82 476.403 95.04 474.993 93.69 474.153 91.77 473.373 89.79 472.983 86.85 472.983 82.95 472.983 79.47 473.403 76.74 474.243 74.76 475.143 72.78 476.553 71.37 478.473 70.53 480.453 69.63 483.153 69.18 486.573 69.18L501.333 69.18 501.333 66.21C501.333 64.35 501.063 62.97 500.523 62.07 500.043 61.17 499.113 60.54 497.733 60.18 496.413 59.82 494.403 59.64 491.703 59.64 487.983 59.64 482.883 60 476.403 60.72L476.403 52.44C481.143 51.84 486.693 51.54 493.053 51.54 498.633 51.54 502.923 51.96 505.923 52.8 508.983 53.64 511.173 55.08 512.493 57.12 513.813 59.16 514.473 62.13 514.473 66.03L514.473 96 501.603 96 501.603 92.04C500.583 93.78 499.203 95.01 497.463 95.73 495.723 96.51 492.423 96.9 487.563 96.9ZM492.693 88.71C495.333 88.71 497.223 88.62 498.363 88.44 499.203 88.32 499.773 88.14 500.073 87.9 500.433 87.66 500.733 87.27 500.973 86.73 501.213 86.31 501.333 85.68 501.333 84.84L501.333 76.38 492.333 76.38C490.293 76.38 488.853 76.53 488.013 76.83 487.173 77.07 486.603 77.61 486.303 78.45 486.003 79.23 485.853 80.64 485.853 82.68 485.853 84.66 486.003 86.04 486.303 86.82 486.603 87.6 487.173 88.11 488.013 88.35 488.913 88.59 490.473 88.71 492.693 88.71ZM547.273 96.9C544.993 96.9 543.193 96.84 541.873 96.72 540.553 96.66 538.933 96.51 537.013 96.27 535.093 96.03 533.503 95.61 532.243 95.01 531.043 94.41 529.783 93.51 528.463 92.31 526.003 90.27 524.773 86.79 524.773 81.87L524.773 67.38C524.773 63.42 525.673 60.12 527.473 57.48 528.133 56.52 529.093 55.65 530.353 54.87 531.673 54.03 532.993 53.37 534.313 52.89 535.393 52.53 536.833 52.23 538.633 51.99 540.433 51.75 542.023 51.6 543.403 51.54L548.173 51.54C551.533 51.54 555.943 52.08 561.403 53.16L561.403 61.8C555.223 60.36 550.483 59.64 547.183 59.64 541.123 59.64 538.093 61.68 538.093 65.76L538.093 81.78C538.093 86.4 541.423 88.71 548.083 88.71 551.323 88.71 555.973 88.05 562.033 86.73L562.033 95.37C556.573 96.39 551.653 96.9 547.273 96.9ZM591.321 96.9C575.901 96.9 568.191 92.19 568.191 82.77L568.191 67.11C568.191 61.65 569.931 57.69 573.411 55.23 576.951 52.77 582.381 51.54 589.701 51.54 596.601 51.54 601.641 52.74 604.821 55.14 608.061 57.48 609.681 61.47 609.681 67.11L609.681 77.73 581.421 77.73 581.421 81.69C581.421 84.21 582.321 86.01 584.121 87.09 585.921 88.17 589.161 88.71 593.841 88.71 598.161 88.71 603.021 88.08 608.421 86.82L608.421 95.19C603.081 96.33 597.381 96.9 591.321 96.9ZM597.171 70.26 597.171 63.96C597.171 62.52 596.571 61.44 595.371 60.72 594.231 60 592.281 59.64 589.521 59.64 586.341 59.64 584.211 60 583.131 60.72 581.991 61.5 581.421 62.58 581.421 63.96L581.421 70.26 597.171 70.26Z" fill="#00BDFF"/><path d="M23.305 43.473C17.105 46.763 2.397 56.896 0.171 79.792-0.982 91.722 3.709 102.864 13.765 112.075 21.219 118.882 29.07 122.309 29.875 122.661 30.839 123.015 91.919 123.004 123.176 122.998L132.297 122.997C146.646 118.479 158.014 111.418 164.851 102.382 171.052 94.179 173.795 84.486 172.801 74.265 172.006 66.019 168.786 58.211 164.056 51.763 158.53 42.583 143.824 35.666 136.47 34.876 126.255 13.778 113.058 1.189 98.55 0.093 86.784-0.83 76.49 5.268 69.454 11.497 66.274 14.347 63.73 17.199 62.021 19.436 61.9443 19.4017 61.8683 19.3661 61.793 19.329 61.647 19.255 61.4975 19.1883 61.345 19.129 55.82 16.804 45.764 14.919 37.138 19.656 27.837 24.744 24.776 34.964 23.822 42.596 23.782 42.991 23.583 43.342 23.305 43.473ZM33.279 49.115C27.802 51.879 14.814 59.392 12.849 78.627 11.83 88.651 13.973 98.011 22.854 105.749 29.436 111.467 34.369 112.346 35.081 112.642 35.931 112.94 89.873 112.93 117.476 112.926L125.53 112.925C138.203 109.129 147.242 105.197 153.28 97.605 158.756 90.715 161.178 83.571 160.3 74.985 159.598 68.057 155.755 61.497 151.577 56.08 146.697 48.367 134.71 44.556 128.216 43.893 119.195 26.168 109.541 13.592 96.728 12.671 86.338 11.897 78.247 17.019 72.033 22.251 69.225 24.647 65.978 29.042 64.469 30.921 64.406 30.895 64.339 30.864 64.268 30.831 64.x87 30.7691 64.0066 30.7133 63.872 30.664 58.993 28.71 50.112 26.126 42.494 30.106 34.281 34.381 34.577 41.966 33.734 48.379 33.699 48.709 33.524 49.005 33.279 49.115ZM46.698 80.355 69.298 68.867 46.698 57.379 46.698 44.367 80.698 62.303C83.698 63.867 83.698 73.867 80.698 75.432L46.698 93.367 46.698 80.355ZM84.455 88.367 128.698 88.367C129.698 92.367 129.698 94.367 128.698 98.367L84.455 98.367C83.445 94.307 83.445 92.327 84.455 88.367Z" fill="#00BDFF" fill-rule="evenodd" clip-rule="evenodd"/></svg>
