<svg width="821" height="123" viewBox="0 0 821 123" fill="none" xmlns="http://www.w3.org/2000/svg">
<path d="M206.3 37.59H231.14C237.98 37.59 243.38 38.13 247.34 39.21C251.3 40.23 254.21 42.03 256.07 44.61C257.93 47.19 258.86 50.76 258.86 55.32V79.08C258.86 83.52 257.99 86.97 256.25 89.43C254.51 91.83 251.66 93.54 247.7 94.56C243.74 95.52 238.25 96 231.23 96H206.3V37.59ZM230.6 86.01C234.44 86.01 237.32 85.86 239.24 85.56C241.22 85.2 242.63 84.54 243.47 83.58C244.37 82.62 244.82 81.12 244.82 79.08V55.05C244.82 52.29 243.71 50.37 241.49 49.29C239.33 48.15 235.85 47.58 231.05 47.58H220.34V86.01H230.6Z" fill="#00BDFF"/>
<path d="M291.526 96.9C276.106 96.9 268.396 92.19 268.396 82.77V67.11C268.396 61.65 270.136 57.69 273.616 55.23C277.156 52.77 282.586 51.54 289.906 51.54C296.806 51.54 301.846 52.74 305.026 55.14C308.266 57.48 309.886 61.47 309.886 67.11V77.73H281.626V81.69C281.626 84.21 282.526 86.01 284.326 87.09C286.126 88.17 289.366 88.71 294.046 88.71C298.366 88.71 303.226 88.08 308.626 86.82V95.19C303.286 96.33 297.586 96.9 291.526 96.9ZM297.376 70.26V63.96C297.376 62.52 296.776 61.44 295.576 60.72C294.436 60 292.486 59.64 289.726 59.64C286.546 59.64 284.416 60 283.336 60.72C282.196 61.5 281.626 62.58 281.626 63.96V70.26H297.376Z" fill="#00BDFF"/>
<path d="M314.17 52.44H328.12L337.66 82.59L346.84 52.44H360.07L344.05 96H330.73L314.17 52.44Z" fill="#00BDFF"/>
<path d="M385.249 96.9C379.669 96.9 372.769 96.36 364.549 95.28V84.57C374.749 86.13 381.709 86.91 385.429 86.91C393.229 86.91 397.129 84.9 397.129 80.88V77.1C397.129 75.18 396.559 73.71 395.419 72.69C394.339 71.67 392.359 71.16 389.479 71.16H382.639C369.799 71.16 363.379 66.06 363.379 55.86V51.54C363.379 46.44 365.509 42.69 369.769 40.29C374.029 37.89 380.779 36.69 390.019 36.69C394.819 36.69 400.909 37.08 408.289 37.86V48.3C399.229 47.22 392.989 46.68 389.569 46.68C384.829 46.68 381.649 47.07 380.029 47.85C378.289 48.69 377.419 50.01 377.419 51.81V55.95C377.419 59.01 379.999 60.54 385.159 60.54H392.179C398.839 60.54 403.669 61.77 406.669 64.23C409.669 66.69 411.169 70.44 411.169 75.48V79.35C411.169 86.31 408.679 91.02 403.699 93.48C401.299 94.74 398.629 95.61 395.689 96.09C392.809 96.63 389.329 96.9 385.249 96.9Z" fill="#00BDFF"/>
<path d="M420.389 52.44H432.809V56.76C433.589 54.84 435.119 53.49 437.399 52.71C439.679 51.93 443.069 51.54 447.569 51.54C451.349 51.54 454.379 51.84 456.659 52.44C458.999 53.04 460.769 54 461.969 55.32C463.109 56.64 463.889 58.11 464.309 59.73C464.729 61.29 464.939 63.45 464.939 66.21V80.52C464.939 84.84 464.309 88.17 463.049 90.51C461.789 92.85 459.839 94.5 457.199 95.46C454.619 96.42 451.079 96.9 446.579 96.9C442.259 96.9 439.139 96.54 437.219 95.82C435.299 95.1 434.069 93.69 433.529 91.59V114.72H420.389V52.44ZM442.529 88.71C445.109 88.71 447.059 88.53 448.379 88.17C449.699 87.81 450.599 87.18 451.079 86.28C451.559 85.38 451.799 84.03 451.799 82.23V66.12C451.799 64.14 451.589 62.73 451.169 61.89C450.749 60.99 449.909 60.39 448.649 60.09C447.389 59.79 445.319 59.64 442.439 59.64C439.979 59.64 438.089 59.85 436.769 60.27C435.509 60.69 434.639 61.35 434.159 62.25C433.739 63.15 433.529 64.44 433.529 66.12V82.23C433.529 84.03 433.739 85.38 434.159 86.28C434.639 87.18 435.509 87.81 436.769 88.17C438.029 88.53 439.949 88.71 442.529 88.71Z" fill="#00BDFF"/>
<path d="M487.563 96.9C483.483 96.9 480.423 96.54 478.383 95.82C476.403 95.04 474.993 93.69 474.153 91.77C473.373 89.79 472.983 86.85 472.983 82.95C472.983 79.47 473.403 76.74 474.243 74.76C475.143 72.78 476.553 71.37 478.473 70.53C480.453 69.63 483.153 69.18 486.573 69.18H501.333V66.21C501.333 64.35 501.063 62.97 500.523 62.07C500.043 61.17 499.113 60.54 497.733 60.18C496.413 59.82 494.403 59.64 491.703 59.64C487.983 59.64 482.883 60 476.403 60.72V52.44C481.143 51.84 486.693 51.54 493.053 51.54C498.633 51.54 502.923 51.96 505.923 52.8C508.983 53.64 511.173 55.08 512.493 57.12C513.813 59.16 514.473 62.13 514.473 66.03V96H501.603V92.04C500.583 93.78 499.203 95.01 497.463 95.73C495.723 96.51 492.423 96.9 487.563 96.9ZM492.693 88.71C495.333 88.71 497.223 88.62 498.363 88.44C499.203 88.32 499.773 88.14 500.073 87.9C500.433 87.66 500.733 87.27 500.973 86.73C501.213 86.31 501.333 85.68 501.333 84.84V76.38H492.333C490.293 76.38 488.853 76.53 488.013 76.83C487.173 77.07 486.603 77.61 486.303 78.45C486.003 79.23 485.853 80.64 485.853 82.68C485.853 84.66 486.003 86.04 486.303 86.82C486.603 87.6 487.173 88.11 488.013 88.35C488.913 88.59 490.473 88.71 492.693 88.71Z" fill="#00BDFF"/>
<path d="M547.273 96.9C544.993 96.9 543.193 96.84 541.873 96.72C540.553 96.66 538.933 96.51 537.013 96.27C535.093 96.03 533.503 95.61 532.243 95.01C531.043 94.41 529.783 93.51 528.463 92.31C526.003 90.27 524.773 86.79 524.773 81.87V67.38C524.773 63.42 525.673 60.12 527.473 57.48C528.133 56.52 529.093 55.65 530.353 54.87C531.673 54.03 532.993 53.37 534.313 52.89C535.393 52.53 536.833 52.23 538.633 51.99C540.433 51.75 542.023 51.6 543.403 51.54H548.173C551.533 51.54 555.943 52.08 561.403 53.16V61.8C555.223 60.36 550.483 59.64 547.183 59.64C541.123 59.64 538.093 61.68 538.093 65.76V81.78C538.093 86.4 541.423 88.71 548.083 88.71C551.323 88.71 555.973 88.05 562.033 86.73V95.37C556.573 96.39 551.653 96.9 547.273 96.9Z" fill="#00BDFF"/>
<path d="M591.321 96.9C575.901 96.9 568.191 92.19 568.191 82.77V67.11C568.191 61.65 569.931 57.69 573.411 55.23C576.951 52.77 582.381 51.54 589.701 51.54C596.601 51.54 601.641 52.74 604.821 55.14C608.061 57.48 609.681 61.47 609.681 67.11V77.73H581.421V81.69C581.421 84.21 582.321 86.01 584.121 87.09C585.921 88.17 589.161 88.71 593.841 88.71C598.161 88.71 603.021 88.08 608.421 86.82V95.19C603.081 96.33 597.381 96.9 591.321 96.9ZM597.171 70.26V63.96C597.171 62.52 596.571 61.44 595.371 60.72C594.231 60 592.281 59.64 589.521 59.64C586.341 59.64 584.211 60 583.131 60.72C581.991 61.5 581.421 62.58 581.421 63.96V70.26H597.171Z" fill="#00BDFF"/>
<path d="M618.465 83.58H632.505V96H618.465V83.58Z" fill="#00BDFF"/>
<path d="M659.582 96.9C655.262 96.9 651.872 96.48 649.412 95.64C646.952 94.74 645.152 93.3 644.012 91.32C642.932 89.34 642.392 86.58 642.392 83.04V63.87C642.392 59.49 643.742 56.34 646.442 54.42C649.202 52.5 653.732 51.54 660.032 51.54C663.812 51.54 667.052 52.02 669.752 52.98C672.512 53.94 673.922 55.32 673.982 57.12H674.162L673.982 46.05V33H682.082V96H674.162V90.87C674.162 92.49 672.872 93.87 670.292 95.01C667.712 96.27 664.142 96.9 659.582 96.9ZM661.292 91.32C665.792 91.32 669.032 90.81 671.012 89.79C672.992 88.77 673.982 87.03 673.982 84.57V63.06C673.982 59.16 669.992 57.21 662.012 57.21C657.212 57.21 654.092 57.57 652.652 58.29C651.152 59.01 650.402 60.6 650.402 63.06V84.57C650.402 87.03 651.212 88.77 652.832 89.79C654.512 90.81 657.332 91.32 661.292 91.32Z" fill="#00BDFF"/>
<path d="M713.878 96.9C710.038 96.9 707.158 96.75 705.238 96.45C703.318 96.21 701.398 95.64 699.478 94.74C697.498 93.84 696.058 92.4 695.158 90.42C694.258 88.38 693.808 85.65 693.808 82.23V67.11C693.808 64.41 694.138 62.04 694.798 60C695.458 57.96 696.328 56.37 697.408 55.23C698.308 54.21 699.658 53.43 701.458 52.89C703.318 52.29 705.208 51.9 707.128 51.72C709.288 51.6 711.538 51.54 713.878 51.54C716.998 51.54 719.338 51.63 720.898 51.81C722.518 51.93 724.228 52.23 726.028 52.71C727.888 53.25 729.328 54.06 730.348 55.14C731.368 56.22 732.238 57.78 732.958 59.82C733.618 61.92 733.948 64.35 733.948 67.11V82.23C733.948 87.33 732.778 91.05 730.438 93.39C729.478 94.35 728.098 95.1 726.298 95.64C724.498 96.18 722.638 96.54 720.718 96.72C718.438 96.84 716.158 96.9 713.878 96.9ZM713.878 91.59C716.398 91.59 718.228 91.53 719.368 91.41C720.508 91.29 721.618 90.96 722.698 90.42C723.778 89.94 724.528 89.16 724.948 88.08C725.428 86.94 725.668 85.38 725.668 83.4V65.76C725.668 63.06 725.338 61.11 724.678 59.91C724.018 58.65 722.878 57.84 721.258 57.48C719.698 57.06 717.238 56.85 713.878 56.85C710.518 56.85 708.028 57.06 706.408 57.48C704.848 57.84 703.738 58.65 703.078 59.91C702.418 61.11 702.088 63.06 702.088 65.76V83.4C702.088 85.38 702.298 86.94 702.718 88.08C703.198 89.16 703.978 89.94 705.058 90.42C706.138 90.96 707.248 91.29 708.388 91.41C709.528 91.53 711.358 91.59 713.878 91.59Z" fill="#00BDFF"/>
<path d="M764.131 96.9C761.131 96.9 758.941 96.84 757.561 96.72C756.241 96.6 754.711 96.3 752.971 95.82C751.111 95.34 749.671 94.62 748.651 93.66C747.631 92.7 746.761 91.29 746.041 89.43C745.321 87.63 744.961 85.38 744.961 82.68V66.66C744.961 61.8 745.891 58.32 747.751 56.22C748.771 55.02 749.791 54.12 750.811 53.52C751.891 52.86 753.271 52.41 754.951 52.17C756.631 51.93 758.131 51.78 759.451 51.72C760.771 51.6 762.631 51.54 765.031 51.54C769.171 51.54 773.311 51.99 777.451 52.89V58.83C772.651 57.63 768.181 57.03 764.041 57.03C760.921 57.03 758.611 57.27 757.111 57.75C755.671 58.17 754.651 58.98 754.051 60.18C753.511 61.32 753.241 63.09 753.241 65.49V83.31C753.241 85.53 753.541 87.18 754.141 88.26C754.801 89.34 755.941 90.12 757.561 90.6C759.241 91.02 761.701 91.23 764.941 91.23C769.321 91.23 773.701 90.66 778.081 89.52V95.64C774.001 96.48 769.351 96.9 764.131 96.9Z" fill="#00BDFF"/>
<path d="M801.649 96.9C797.029 96.9 792.049 96.54 786.709 95.82V89.61C793.729 90.75 798.769 91.32 801.829 91.32C805.669 91.32 808.429 90.96 810.109 90.24C811.789 89.46 812.629 88.05 812.629 86.01V81.6C812.629 79.74 811.999 78.42 810.739 77.64C809.479 76.86 807.439 76.47 804.619 76.47H799.669C795.169 76.47 791.719 75.54 789.319 73.68C786.979 71.82 785.809 69.21 785.809 65.85V61.8C785.809 54.96 792.289 51.54 805.249 51.54C806.209 51.54 810.619 51.78 818.479 52.26V58.11C813.139 57.27 808.609 56.85 804.889 56.85C800.629 56.85 797.719 57.27 796.159 58.11C794.599 58.95 793.819 60.36 793.819 62.34V66.03C793.819 68.97 796.489 70.44 801.829 70.44H806.869C816.049 70.44 820.639 73.86 820.639 80.7V84.48C820.639 88.98 819.079 92.19 815.959 94.11C812.839 95.97 808.069 96.9 801.649 96.9Z" fill="#00BDFF"/>
<path fill-rule="evenodd" clip-rule="evenodd" d="M23.3053 43.473C17.1042 46.7628 2.3972 56.8956 0.171094 79.7919C-0.981959 91.7229 3.70884 102.864 13.765 112.075C21.2192 118.882 29.0698 122.309 29.8757 122.661C30.839 123.015 91.9192 123.004 123.176 122.998C126.618 122.998 129.698 122.997 132.297 122.997C146.646 118.479 158.014 111.418 164.851 102.382C171.052 94.1794 173.795 84.4858 172.801 74.2655C172.006 66.0193 168.786 58.2114 164.056 51.7634C158.53 42.5826 143.824 35.6659 136.47 34.876C126.255 13.7779 113.058 1.18941 98.5499 0.0928031C86.7842 -0.828772 76.4897 5.26839 69.4541 11.4972C66.2742 14.3479 63.7302 17.1994 62.0207 19.436C61.9493 19.4046 61.8729 19.3675 61.7931 19.3287C61.6507 19.2596 61.4977 19.1854 61.3448 19.1293C55.8202 16.8044 45.7636 14.9187 37.1377 19.6559C27.8368 24.744 24.7755 34.9642 23.8218 42.5963C23.7818 42.9905 23.5832 43.3421 23.3053 43.473ZM33.2786 49.1152C27.8023 51.879 14.8144 59.3917 12.8485 78.6273C11.8303 88.6507 13.9728 98.0106 22.8535 105.749C29.4364 111.467 34.3693 112.346 35.081 112.642C35.9318 112.94 89.8728 112.93 117.476 112.926C120.515 112.925 123.236 112.925 125.53 112.925C138.203 109.129 147.242 105.197 153.28 97.6052C158.756 90.7145 161.178 83.5707 160.3 74.9845C159.598 68.0567 155.755 61.4971 151.577 56.0801C146.697 48.3671 134.71 44.5563 128.216 43.8927C119.195 26.1679 109.541 13.592 96.7281 12.6708C86.3377 11.8965 78.2465 17.0189 72.0333 22.2518C69.2251 24.6467 65.9784 29.0423 64.4687 30.9213C64.4057 30.8949 64.3382 30.8637 64.2677 30.8312C64.142 30.7731 64.0069 30.7108 63.8718 30.6636C58.993 28.7105 50.1118 26.1262 42.4943 30.1061C34.2805 34.3806 34.577 41.9668 33.7347 48.3787C33.6994 48.7099 33.5241 49.0052 33.2786 49.1152ZM46.6978 80.3552L69.2978 68.8671L46.6978 57.3791V44.3671L80.6977 62.3025C83.6977 63.8671 83.6977 73.8671 80.6977 75.4317L46.6978 93.3671V80.3552ZM84.4553 88.3671H128.698C129.698 92.3671 129.698 94.3671 128.698 98.3671H84.4553C83.4452 94.3077 83.4452 92.3275 84.4553 88.3671Z" fill="#00BDFF"/>
</svg>
