<svg width="602" height="111" viewBox="0 0 602 111" fill="none" xmlns="http://www.w3.org/2000/svg">
<path d="M578.254 43.1243C581.237 41.687 584.045 39.9551 586.643 38.0019C588.995 39.918 591.136 42.0924 592.997 44.5244C590.645 46.4034 588.187 48.0989 585.555 49.5725C583.484 47.0299 580.991 44.8191 578.254 43.1243Z" fill="#4AC9F5"/>
<path d="M492.207 74.7835L516.582 61.4658L492.207 47.6638V41.1261L522.878 58.318V64.1294L492.207 81.3213V74.7835Z" fill="#4AC9F5"/>
<path d="M525.475 78.5425H560.828V84.2731H525.475V78.5425Z" fill="#4AC9F5"/>
<path d="M448.372 68.0345C450.338 48.7989 463.326 40.2862 468.802 37.5224C469.048 37.4124 469.223 37.1171 469.258 36.7859C470.101 30.374 472.804 21.7878 481.018 17.5133C488.636 13.5334 497.517 15.1177 502.396 17.0708C502.606 17.1444 502.817 17.255 502.993 17.3285C504.502 15.4495 506.749 13.0539 509.557 10.659C515.77 5.42606 524.862 0.303735 535.252 1.07797C548.065 1.99924 559.157 11.4326 568.179 29.1574C568.284 29.3422 568.354 29.5263 568.459 29.7104C568.529 29.8945 568.635 30.0787 568.74 30.2999C575.234 30.9635 581.448 33.7638 586.678 38.0019C584.045 39.9915 581.237 41.7234 578.288 43.1242C574.848 40.9863 571.022 39.6232 567.09 39.402C563.264 39.1444 561.509 35.6434 560.702 33.9479C560.632 33.8009 560.561 33.6532 560.491 33.5061C552.979 18.8028 544.309 10.9908 534.691 10.2901C526.195 9.66418 518.122 14.8965 513.102 19.6135C511.312 21.3083 509.908 22.9297 509.03 24.2198C508.398 25.1411 507.556 25.8783 506.643 26.3571C504.712 27.3519 502.396 27.389 500.395 26.2094C498.148 24.8828 490.531 22.8932 484.984 25.7677C481.159 27.7573 478.841 31.8848 478.034 38.0383C477.578 41.4658 475.577 44.3767 472.663 45.8139C467.503 48.43 458.587 54.916 457.148 69.0299C455.533 85.0963 474.629 94.0879 477.368 95.2668C483.089 95.8198 532.76 95.488 563.791 95.1198C583.203 89.1868 593.488 78.0209 592.084 64.3865C591.522 58.9694 589.135 53.7736 585.66 49.5361C588.257 48.0618 590.75 46.3669 593.101 44.4873C597.279 49.9043 600.122 56.4639 600.824 63.3917C601.702 71.9779 599.28 80.1217 593.804 87.0124C587.766 94.6038 578.288 100.352 565.616 104.148L565.054 104.332H564.458C564.247 104.332 542.799 104.59 521.281 104.701C512.541 104.737 505.52 104.774 499.798 104.774C476.56 104.774 475.612 104.406 474.664 104.074C474.594 104.037 467.293 101.163 460.377 95.1562C451.496 87.4177 447.354 78.0579 448.372 68.0345Z" fill="#4AC9F5"/>
<path d="M1 25.6003H26.2863C44.124 25.6003 53.0428 31.6768 53.0428 43.83V71.9586C53.0428 83.4583 44.1567 89.2082 26.3844 89.2082H1V25.6003ZM25.6983 82.7396C37.8514 82.7396 43.928 79.0806 43.928 71.7626V43.732C43.928 41.3797 43.4379 39.3869 42.4578 37.7534C41.4777 36.1199 40.1056 34.9111 38.3415 34.1271C36.5773 33.4083 34.7478 32.9183 32.8529 32.6569C30.9581 32.3302 28.7366 32.1669 26.1883 32.1669H10.5069V82.7396H25.6983Z" fill="#4AC9F5"/>
<path d="M86.9256 90.1883C72.4203 90.1883 65.1676 85.3531 65.1676 75.6829V56.9632C65.1676 51.2133 66.8011 47.0969 70.0681 44.614C73.4004 42.0658 78.7582 40.7917 86.1416 40.7917C93.1329 40.7917 98.164 42.0005 101.235 44.418C104.371 46.8356 105.939 51.0173 105.939 56.9632V67.4501H74.0864V74.6048C74.0864 77.8718 75.2299 80.224 77.5168 81.6615C79.8036 83.0989 83.332 83.8177 88.1017 83.8177C92.6102 83.8177 97.9353 83.0336 104.077 81.4654V88.2281C98.066 89.5349 92.3488 90.1883 86.9256 90.1883ZM97.1186 61.6676V54.2189C97.1186 51.344 96.2365 49.3838 94.4723 48.3384C92.7735 47.2276 89.8332 46.6722 85.6515 46.6722C81.6005 46.6722 78.6602 47.2276 76.8307 48.3384C75.0012 49.3838 74.0864 51.344 74.0864 54.2189V61.6676H97.1186Z" fill="#4AC9F5"/>
<path d="M112.325 41.7718H121.636L134.769 81.5635H135.259L148.001 41.7718H156.527L139.964 89.2082H129.379L112.325 41.7718Z" fill="#4AC9F5"/>
<path d="M183.665 90.1883C178.242 90.1883 171.773 89.6655 164.259 88.6201V80.6814C171.839 82.3149 178.503 83.1316 184.253 83.1316C189.088 83.1316 192.617 82.6089 194.838 81.5635C197.06 80.4527 198.171 78.4272 198.171 75.4869V67.2541C198.171 64.5099 197.386 62.5824 195.818 61.4716C194.25 60.3608 191.506 59.8054 187.586 59.8054H180.137C173.93 59.8054 169.519 58.564 166.906 56.0811C164.292 53.5982 162.985 49.7432 162.985 44.516V39.4196C162.985 35.9566 163.737 33.147 165.239 30.9908C166.808 28.8346 169.389 27.2338 172.982 26.1883C176.641 25.1429 181.64 24.6202 187.978 24.6202C192.225 24.6202 197.68 24.9796 204.345 25.6983V32.8529C196.896 31.7422 191.212 31.1868 187.292 31.1868C181.215 31.1868 177.197 31.7748 175.236 32.951C173.211 34.1924 172.198 36.2506 172.198 39.1255V46.3782C172.198 48.5997 172.982 50.2332 174.55 51.2787C176.184 52.2587 178.961 52.7488 182.881 52.7488H190.526C194.904 52.7488 198.301 53.2715 200.719 54.3169C203.202 55.3624 204.933 56.9632 205.913 59.1194C206.959 61.2102 207.481 64.0525 207.481 67.6462V72.2526C207.481 76.761 206.632 80.322 204.933 82.9356C203.3 85.5492 200.751 87.4113 197.288 88.5221C193.825 89.6329 189.284 90.1883 183.665 90.1883Z" fill="#4AC9F5"/>
<path d="M220.55 41.7718H229.272V46.8682H229.37C230.089 42.8172 235.48 40.7917 245.542 40.7917C251.553 40.7917 256.094 42.0658 259.165 44.614C262.236 47.0969 263.772 50.2986 263.772 54.2189V73.7227C263.772 76.5323 263.347 78.9826 262.497 81.0734C261.713 83.1643 260.668 84.7978 259.361 85.9739C258.185 87.0846 256.552 87.9667 254.461 88.6201C252.435 89.2735 250.41 89.6982 248.384 89.8942C246.555 90.0902 244.333 90.1883 241.719 90.1883C238.845 90.1883 236.198 89.8616 233.781 89.2082C231.429 88.4894 229.958 87.4767 229.37 86.1699V109.594H220.55V41.7718ZM241.915 84.2097C245.313 84.2097 247.894 83.981 249.658 83.5236C251.488 83.0009 252.794 82.0862 253.579 80.7794C254.363 79.4726 254.755 77.4797 254.755 74.8008V57.3552C254.755 54.4149 254.363 52.2261 253.579 50.7886C252.794 49.3511 251.488 48.4037 249.658 47.9463C247.894 47.4236 245.28 47.1623 241.817 47.1623C238.354 47.1623 235.774 47.4236 234.075 47.9463C232.376 48.4037 231.167 49.3511 230.448 50.7886C229.73 52.1607 229.37 54.3496 229.37 57.3552V74.8008C229.37 77.4797 229.73 79.4726 230.448 80.7794C231.232 82.0862 232.507 83.0009 234.271 83.5236C236.035 83.981 238.583 84.2097 241.915 84.2097Z" fill="#4AC9F5"/>
<path d="M291.91 90.1883C287.402 90.1883 283.906 89.7636 281.423 88.9141C279.006 88.0647 277.241 86.5619 276.131 84.4057C275.085 82.2495 274.562 79.1459 274.562 75.0949C274.562 71.5012 275.052 68.7243 276.033 66.7641C277.078 64.7386 278.81 63.3011 281.227 62.4517C283.71 61.6023 287.206 61.1776 291.714 61.1776H305.925V53.6309C305.925 51.8667 305.566 50.5273 304.847 49.6125C304.194 48.6324 303.05 47.9463 301.417 47.5543C299.849 47.1623 297.529 46.9663 294.458 46.9663C289.558 46.9663 284.135 47.3583 278.189 48.1424V41.6738C284.657 41.0857 290.505 40.7917 295.732 40.7917C301.221 40.7917 305.272 41.2164 307.886 42.0658C310.499 42.8499 312.296 44.2547 313.276 46.2802C314.256 48.3057 314.746 51.442 314.746 55.6891V89.2082H306.219V84.6997C305.501 88.3587 300.731 90.1883 291.91 90.1883ZM293.38 84.4057C296.582 84.4057 299.293 84.177 301.515 83.7197C304.455 83.1316 305.925 81.7595 305.925 79.6033V66.6661H292.302C289.493 66.6661 287.467 66.8948 286.226 67.3521C284.984 67.7442 284.167 68.5283 283.775 69.7044C283.383 70.8805 283.187 72.7753 283.187 75.3889C283.187 77.7411 283.416 79.5706 283.873 80.8774C284.331 82.1188 285.147 83.0336 286.324 83.6217C287.5 84.1444 289.264 84.4057 291.616 84.4057H293.38Z" fill="#4AC9F5"/>
<path d="M349.156 90.1883C345.889 90.1883 343.504 90.1229 342.001 89.9922C340.564 89.8616 338.897 89.5349 337.003 89.0121C334.977 88.4894 333.409 87.7054 332.298 86.6599C331.187 85.6145 330.24 84.079 329.456 82.0535C328.672 80.0933 328.28 77.6431 328.28 74.7028V57.2572C328.28 51.9647 329.293 48.175 331.318 45.8882C332.429 44.5814 333.54 43.6013 334.65 42.9479C335.827 42.2291 337.329 41.7391 339.159 41.4777C340.988 41.2164 342.622 41.053 344.059 40.9877C345.497 40.857 347.522 40.7917 350.136 40.7917C354.644 40.7917 359.153 41.2817 363.661 42.2618V48.7304C358.434 47.4236 353.566 46.7702 349.058 46.7702C345.66 46.7702 343.145 47.0316 341.511 47.5543C339.943 48.0117 338.832 48.8938 338.179 50.2006C337.591 51.442 337.297 53.3695 337.297 55.9831V75.3889C337.297 77.8064 337.623 79.6033 338.277 80.7794C338.996 81.9555 340.237 82.8049 342.001 83.3276C343.831 83.785 346.51 84.0137 350.038 84.0137C354.808 84.0137 359.577 83.393 364.347 82.1515V88.8161C359.904 89.7309 354.84 90.1883 349.156 90.1883Z" fill="#4AC9F5"/>
<path d="M395.501 90.1883C380.996 90.1883 373.743 85.3531 373.743 75.6829V56.9632C373.743 51.2133 375.377 47.0969 378.643 44.614C381.976 42.0658 387.334 40.7917 394.717 40.7917C401.708 40.7917 406.739 42.0005 409.81 44.418C412.947 46.8356 414.515 51.0173 414.515 56.9632V67.4501H382.662V74.6048C382.662 77.8718 383.805 80.224 386.092 81.6615C388.379 83.0989 391.907 83.8177 396.677 83.8177C401.186 83.8177 406.511 83.0336 412.653 81.4654V88.2281C406.641 89.5349 400.924 90.1883 395.501 90.1883ZM405.694 61.6676V54.2189C405.694 51.344 404.812 49.3838 403.048 48.3384C401.349 47.2276 398.409 46.6722 394.227 46.6722C390.176 46.6722 387.236 47.2276 385.406 48.3384C383.577 49.3838 382.662 51.344 382.662 54.2189V61.6676H405.694Z" fill="#4AC9F5"/>
</svg>
