<svg width="301" height="55" viewBox="0 0 301 55" fill="none" xmlns="http://www.w3.org/2000/svg">
<path d="M288.907 21.0621C290.399 20.3435 291.803 19.4775 293.101 18.501C294.277 19.459 295.348 20.5462 296.278 21.7622C295.102 22.7017 293.874 23.5494 292.557 24.2863C291.522 23.015 290.276 21.9096 288.907 21.0621Z" fill="#4AC9F5"/>
<path d="M245.883 36.8918L258.071 30.2329L245.883 23.3319V20.063L261.219 28.659V31.5647L245.883 40.1607V36.8918Z" fill="#4AC9F5"/>
<path d="M262.518 38.7712H280.194V41.6366H262.518V38.7712Z" fill="#4AC9F5"/>
<path d="M223.966 33.5172C224.949 23.8995 231.443 19.6431 234.181 18.2612C234.304 18.2062 234.392 18.0585 234.409 17.8929C234.83 14.687 236.182 10.3939 240.289 8.25663C244.098 6.26671 248.538 7.05884 250.978 8.03542C251.083 8.07218 251.189 8.12748 251.276 8.16424C252.031 7.22475 253.154 6.02696 254.559 4.82949C257.665 2.21303 262.211 -0.348132 267.406 0.0389827C273.812 0.499621 279.359 5.21629 283.869 14.0787C283.922 14.1711 283.957 14.2631 284.01 14.3552C284.045 14.4473 284.097 14.5393 284.15 14.6499C287.397 14.9818 290.504 16.3819 293.119 18.501C291.803 19.4958 290.399 20.3617 288.924 21.0621C287.204 19.9931 285.291 19.3116 283.325 19.201C281.412 19.0722 280.535 17.3217 280.131 16.474C280.096 16.4004 280.061 16.3266 280.026 16.2531C276.269 8.90139 271.934 4.9954 267.125 4.64504C262.878 4.33209 258.841 6.94824 256.331 9.30673C255.436 10.1542 254.734 10.9648 254.295 11.6099C253.979 12.0706 253.558 12.4391 253.101 12.6786C252.136 13.176 250.978 13.1945 249.978 12.6047C248.854 11.9414 245.045 10.9466 242.272 12.3838C240.359 13.3786 239.201 15.4424 238.797 18.5192C238.569 20.2329 237.569 21.6883 236.112 22.4069C233.532 23.715 229.074 26.958 228.354 34.015C227.547 42.0482 237.095 46.5439 238.464 47.1334C241.325 47.4099 266.16 47.244 281.675 47.0599C291.381 44.0934 296.524 38.5104 295.822 31.6932C295.541 28.9847 294.347 26.3868 292.61 24.268C293.909 23.5309 295.155 22.6835 296.331 21.7436C298.419 24.4522 299.841 27.7319 300.192 31.1958C300.631 35.4889 299.42 39.5608 296.682 43.0062C293.663 46.8019 288.924 49.676 282.588 51.5739L282.307 51.6659H282.009C281.903 51.6659 271.18 51.7951 260.421 51.8504C256.05 51.8686 252.54 51.8872 249.679 51.8872C238.06 51.8872 237.586 51.703 237.112 51.5371C237.077 51.5186 233.426 50.0817 229.969 47.0781C225.528 43.2089 223.457 38.529 223.966 33.5172Z" fill="#4AC9F5"/>
<path d="M0.279999 12.3001H12.9232C21.842 12.3001 26.3014 15.3384 26.3014 21.415V35.4793C26.3014 41.2291 21.8583 44.1041 12.9722 44.1041H0.279999V12.3001ZM12.6291 40.8698C18.7057 40.8698 21.744 39.0403 21.744 35.3813V21.366C21.744 20.1899 21.499 19.1934 21.0089 18.3767C20.5189 17.56 19.8328 16.9556 18.9507 16.5635C18.0686 16.2042 17.1539 15.9591 16.2065 15.8285C15.2591 15.6651 14.1483 15.5834 12.8742 15.5834H5.03344V40.8698H12.6291Z" fill="#4AC9F5"/>
<path d="M43.2428 44.5941C35.9901 44.5941 32.3638 42.1766 32.3638 37.3415V27.9816C32.3638 25.1067 33.1805 23.0485 34.814 21.807C36.4802 20.5329 39.1591 19.8958 42.8508 19.8958C46.3464 19.8958 48.862 20.5002 50.3975 21.709C51.9656 22.9178 52.7497 25.0086 52.7497 27.9816V33.2251H36.8232V36.8024C36.8232 38.4359 37.3949 39.612 38.5384 40.3307C39.6818 41.0495 41.446 41.4088 43.8309 41.4088C46.0851 41.4088 48.7477 41.0168 51.8186 40.2327V43.614C48.813 44.2674 45.9544 44.5941 43.2428 44.5941ZM48.3393 30.3338V26.6095C48.3393 25.172 47.8982 24.1919 47.0162 23.6692C46.1667 23.1138 44.6966 22.8361 42.6058 22.8361C40.5802 22.8361 39.1101 23.1138 38.1953 23.6692C37.2806 24.1919 36.8232 25.172 36.8232 26.6095V30.3338H48.3393Z" fill="#4AC9F5"/>
<path d="M55.9426 20.3859H60.5981L67.1647 40.2817H67.4097L73.7803 20.3859H78.0437L69.7619 44.1041H64.4694L55.9426 20.3859Z" fill="#4AC9F5"/>
<path d="M91.6126 44.5941C88.901 44.5941 85.6667 44.3328 81.9097 43.8101V39.8407C85.6994 40.6574 89.0317 41.0658 91.9066 41.0658C94.3242 41.0658 96.0883 40.8044 97.1991 40.2817C98.3099 39.7263 98.8653 38.7136 98.8653 37.2434V33.1271C98.8653 31.7549 98.4732 30.7912 97.6891 30.2358C96.9051 29.6804 95.5329 29.4027 93.5728 29.4027H89.8484C86.7448 29.4027 84.5396 28.782 83.2328 27.5405C81.926 26.2991 81.2726 24.3716 81.2726 21.758V19.2098C81.2726 17.4783 81.6483 16.0735 82.3997 14.9954C83.1838 13.9173 84.4743 13.1169 86.2711 12.5942C88.1006 12.0714 90.5998 11.8101 93.7688 11.8101C95.8923 11.8101 98.6202 11.9898 101.953 12.3491V15.9265C98.2282 15.3711 95.3859 15.0934 93.4258 15.0934C90.3875 15.0934 88.3783 15.3874 87.3982 15.9755C86.3854 16.5962 85.8791 17.6253 85.8791 19.0628V22.6891C85.8791 23.7999 86.2711 24.6166 87.0552 25.1393C87.8719 25.6294 89.2604 25.8744 91.2205 25.8744H95.0429C97.2318 25.8744 98.9306 26.1358 100.139 26.6585C101.381 27.1812 102.247 27.9816 102.737 29.0597C103.259 30.1051 103.521 31.5263 103.521 33.3231V35.6263C103.521 37.8805 103.096 39.661 102.247 40.9678C101.43 42.2746 100.156 43.2057 98.4242 43.7611C96.6927 44.3164 94.4222 44.5941 91.6126 44.5941Z" fill="#4AC9F5"/>
<path d="M110.055 20.3859H114.416V22.9341H114.465C114.825 20.9086 117.52 19.8958 122.551 19.8958C125.557 19.8958 127.827 20.5329 129.363 21.807C130.898 23.0485 131.666 24.6493 131.666 26.6095V36.3614C131.666 37.7662 131.453 38.9913 131.029 40.0367C130.637 41.0821 130.114 41.8989 129.461 42.4869C128.873 43.0423 128.056 43.4834 127.01 43.8101C125.998 44.1368 124.985 44.3491 123.972 44.4471C123.057 44.5451 121.947 44.5941 120.64 44.5941C119.202 44.5941 117.879 44.4308 116.67 44.1041C115.494 43.7447 114.759 43.2383 114.465 42.5849V54.297H110.055V20.3859ZM120.738 41.6049C122.437 41.6049 123.727 41.4905 124.609 41.2618C125.524 41.0005 126.177 40.5431 126.569 39.8897C126.961 39.2363 127.157 38.2399 127.157 36.9004V28.1776C127.157 26.7075 126.961 25.613 126.569 24.8943C126.177 24.1756 125.524 23.7019 124.609 23.4732C123.727 23.2118 122.42 23.0811 120.689 23.0811C118.957 23.0811 117.667 23.2118 116.817 23.4732C115.968 23.7019 115.364 24.1756 115.004 24.8943C114.645 25.5804 114.465 26.6748 114.465 28.1776V36.9004C114.465 38.2399 114.645 39.2363 115.004 39.8897C115.396 40.5431 116.033 41.0005 116.915 41.2618C117.797 41.4905 119.072 41.6049 120.738 41.6049Z" fill="#4AC9F5"/>
<path d="M145.735 44.5941C143.481 44.5941 141.733 44.3818 140.492 43.9571C139.283 43.5324 138.401 42.781 137.845 41.7029C137.323 40.6248 137.061 39.073 137.061 37.0474C137.061 35.2506 137.306 33.8621 137.796 32.882C138.319 31.8693 139.185 31.1505 140.394 30.7258C141.635 30.3011 143.383 30.0888 145.637 30.0888H152.743V26.3154C152.743 25.4334 152.563 24.7636 152.204 24.3063C151.877 23.8162 151.305 23.4732 150.488 23.2772C149.704 23.0811 148.545 22.9831 147.009 22.9831C144.559 22.9831 141.847 23.1791 138.874 23.5712V20.3369C142.109 20.0429 145.033 19.8958 147.646 19.8958C150.39 19.8958 152.416 20.1082 153.723 20.5329C155.03 20.9249 155.928 21.6273 156.418 22.6401C156.908 23.6529 157.153 25.221 157.153 27.3445V44.1041H152.89V41.8499C152.53 43.6794 150.145 44.5941 145.735 44.5941ZM146.47 41.7029C148.071 41.7029 149.427 41.5885 150.537 41.3598C152.008 41.0658 152.743 40.3797 152.743 39.3016V32.833H145.931C144.526 32.833 143.513 32.9474 142.893 33.1761C142.272 33.3721 141.864 33.7641 141.668 34.3522C141.472 34.9402 141.374 35.8877 141.374 37.1944C141.374 38.3706 141.488 39.2853 141.717 39.9387C141.945 40.5594 142.354 41.0168 142.942 41.3108C143.53 41.5722 144.412 41.7029 145.588 41.7029H146.47Z" fill="#4AC9F5"/>
<path d="M174.358 44.5941C172.724 44.5941 171.532 44.5615 170.781 44.4961C170.062 44.4308 169.229 44.2674 168.281 44.0061C167.269 43.7447 166.485 43.3527 165.929 42.83C165.374 42.3073 164.9 41.5395 164.508 40.5268C164.116 39.5467 163.92 38.3215 163.92 36.8514V28.1286C163.92 25.4824 164.426 23.5875 165.439 22.4441C165.994 21.7907 166.55 21.3006 167.105 20.9739C167.693 20.6146 168.445 20.3696 169.359 20.2389C170.274 20.1082 171.091 20.0265 171.81 19.9939C172.528 19.9285 173.541 19.8958 174.848 19.8958C177.102 19.8958 179.356 20.1409 181.611 20.6309V23.8652C178.997 23.2118 176.563 22.8851 174.309 22.8851C172.61 22.8851 171.352 23.0158 170.536 23.2772C169.751 23.5058 169.196 23.9469 168.869 24.6003C168.575 25.221 168.428 26.1848 168.428 27.4915V37.1944C168.428 38.4032 168.592 39.3016 168.918 39.8897C169.278 40.4777 169.898 40.9025 170.781 41.1638C171.695 41.3925 173.035 41.5068 174.799 41.5068C177.184 41.5068 179.569 41.1965 181.954 40.5758V43.9081C179.732 44.3654 177.2 44.5941 174.358 44.5941Z" fill="#4AC9F5"/>
<path d="M197.531 44.5941C190.278 44.5941 186.652 42.1766 186.652 37.3415V27.9816C186.652 25.1067 187.468 23.0485 189.102 21.807C190.768 20.5329 193.447 19.8958 197.138 19.8958C200.634 19.8958 203.15 20.5002 204.685 21.709C206.253 22.9178 207.037 25.0086 207.037 27.9816V33.2251H191.111V36.8024C191.111 38.4359 191.683 39.612 192.826 40.3307C193.97 41.0495 195.734 41.4088 198.119 41.4088C200.373 41.4088 203.035 41.0168 206.106 40.2327V43.614C203.101 44.2674 200.242 44.5941 197.531 44.5941ZM202.627 30.3338V26.6095C202.627 25.172 202.186 24.1919 201.304 23.6692C200.454 23.1138 198.984 22.8361 196.893 22.8361C194.868 22.8361 193.398 23.1138 192.483 23.6692C191.568 24.1919 191.111 25.172 191.111 26.6095V30.3338H202.627Z" fill="#4AC9F5"/>
</svg>
