<svg width="100" height="68" viewBox="0 0 100 68" fill="none" xmlns="http://www.w3.org/2000/svg">
<path d="M85.1116 27.572C87.0644 26.6313 88.9025 25.4977 90.6026 24.2193C92.1421 25.4734 93.5437 26.8966 94.7615 28.4885C93.222 29.7184 91.6136 30.8281 89.8903 31.7927C88.535 30.1285 86.9034 28.6814 85.1116 27.572Z" fill="#4AC9F5"/>
<path d="M28.7904 48.2943L44.7451 39.5773L28.7904 30.5434V26.2641L48.8659 37.517V41.3207L28.7904 52.5736V48.2943Z" fill="#4AC9F5"/>
<path d="M50.566 50.7547H73.7056V54.5057H50.566V50.7547Z" fill="#4AC9F5"/>
<path d="M0.0988982 43.8768C1.38566 31.2864 9.88677 25.7144 13.4712 23.9054C13.6319 23.8334 13.7466 23.6401 13.7698 23.4233C14.3211 19.2265 16.0906 13.6065 21.4669 10.8086C26.4529 8.20363 32.266 9.24059 35.4594 10.519C35.5974 10.5671 35.7353 10.6395 35.8501 10.6877C36.8383 9.45778 38.3088 7.88978 40.1469 6.3222C44.2137 2.89703 50.1644 -0.455734 56.9653 0.0510315C65.3516 0.654044 72.6122 6.82855 78.5171 18.4302C78.586 18.5511 78.6319 18.6716 78.7008 18.7921C78.7467 18.9127 78.8156 19.0332 78.8846 19.178C83.1352 19.6123 87.2023 21.4452 90.6257 24.2193C88.9025 25.5215 87.0644 26.6552 85.1343 27.572C82.8824 26.1727 80.3782 25.2805 77.8047 25.1357C75.3005 24.9671 74.1517 22.6755 73.6231 21.5657C73.5773 21.4695 73.531 21.3728 73.4852 21.2766C68.5681 11.6526 62.8933 6.53938 56.5978 6.08074C51.0373 5.67106 45.7528 9.09581 42.4673 12.1833C41.2953 13.2926 40.3765 14.3539 39.8021 15.1983C39.3883 15.8013 38.837 16.2838 38.2395 16.5973C36.9758 17.2484 35.4594 17.2727 34.15 16.5006C32.6794 15.6323 27.6934 14.33 24.0631 16.2114C21.5589 17.5137 20.0422 20.2153 19.514 24.2431C19.215 26.4865 17.9055 28.3918 15.9985 29.3325C12.6209 31.0449 6.78506 35.2903 5.84311 44.5284C4.78595 55.0445 17.2853 60.9298 19.0775 61.7015C22.8226 62.0634 55.3342 61.8462 75.645 61.6052C88.3508 57.7218 95.0832 50.4133 94.164 41.489C93.7964 37.9433 92.2338 34.5425 89.9592 31.7688C91.6594 30.8039 93.2909 29.6945 94.83 28.4642C97.5642 32.0099 99.4254 36.3034 99.885 40.8379C100.459 46.4579 98.8741 51.7884 95.2897 56.2986C91.3377 61.2675 85.1343 65.03 76.8396 67.5144L76.4721 67.6349H76.0814C75.9435 67.6349 61.9051 67.804 47.8208 67.8764C42.0998 67.9002 37.5044 67.9245 33.7593 67.9245C18.5489 67.9245 17.9287 67.6835 17.308 67.4663C17.2622 67.442 12.483 65.561 7.9566 61.6291C2.14383 56.5639 -0.567605 50.4376 0.0988982 43.8768Z" fill="#4AC9F5"/>
</svg>
