<svg width="60" height="60" viewBox="0 0 60 60" fill="none" xmlns="http://www.w3.org/2000/svg">
<path fill-rule="evenodd" clip-rule="evenodd" d="M17.543 30.568C17.489 30.568 18.135 31.935 18.153 31.935C19.563 34.451 22.281 36.015 26.866 36.448C26.212 36.936 25.426 37.863 25.317 38.934C24.494 39.456 22.839 39.629 21.553 39.231C19.75 38.671 19.06 35.164 16.361 35.664C15.777 35.772 15.893 36.15 16.398 36.473C17.221 36.995 17.995 37.651 18.592 39.044C19.051 40.114 20.015 42.026 23.065 42.026C24.275 42.026 25.123 41.882 25.123 41.882C25.123 41.882 25.146 44.613 25.146 45.675C25.146 46.9 23.464 47.245 23.464 47.834C23.464 48.066 24.021 48.089 24.468 48.089C25.352 48.089 27.191 47.363 27.191 46.091C27.191 45.08 27.208 41.68 27.208 41.085C27.208 39.785 27.917 39.373 27.917 39.373C27.917 39.373 28.005 46.314 27.748 47.245C27.446 48.339 26.901 48.183 26.901 48.672C26.901 49.398 29.115 48.85 29.849 47.256C30.416 46.016 30.168 39.206 30.168 39.206L30.773 39.194C30.773 39.194 30.807 42.311 30.786 43.736C30.765 45.212 30.663 47.078 31.555 47.958C32.141 48.536 34.039 49.552 34.039 48.624C34.039 48.085 32.999 47.642 32.999 46.183V39.468C33.83 39.468 33.705 41.676 33.705 41.676L33.766 45.779C33.766 45.779 33.582 47.273 35.411 47.899C36.056 48.121 37.436 48.18 37.501 47.808C37.566 47.435 35.839 46.881 35.823 45.723C35.813 45.017 35.855 44.605 35.855 41.537C35.855 38.469 35.436 37.335 33.975 36.432C38.483 35.976 41.274 34.88 42.633 31.945C42.739 31.948 43.188 30.574 43.129 30.574C43.434 29.466 43.599 28.155 43.631 26.603C43.623 22.392 41.573 20.904 41.18 20.205C41.76 17.017 41.082 15.568 40.768 15.07C39.606 14.664 36.727 16.115 35.153 17.136C32.589 16.4 27.167 16.47 25.134 17.326C21.383 14.686 19.398 15.091 19.398 15.091C19.398 15.091 18.115 17.35 19.059 20.656C17.825 22.202 16.905 23.296 16.905 26.195C16.906 27.83 17.102 29.292 17.543 30.568ZM0 0H60V60H0V0Z" fill="#24292E"/>
</svg>
