<svg width="60" height="60" viewBox="0 0 60 60" fill="none" xmlns="http://www.w3.org/2000/svg">
<rect width="60" height="60" fill="white"/>
<path d="M21.6609 22.7115L38.2379 32.4887L40.3259 28.9485L23.749 19.1713L21.6609 22.7115Z" fill="#F48024"/>
<path d="M18.3065 32.5955L36.8926 37.5918L37.9597 33.6222L19.3736 28.6259L18.3065 32.5955Z" fill="#F48024"/>
<path d="M17.2886 41.3259L36.4537 43.0927L36.831 39.0002L17.6658 37.2335L17.2886 41.3259Z" fill="#F48024"/>
<path d="M36.2627 44.249H17.0156V48.3601H36.2627V44.249Z" fill="#F48024"/>
<path d="M42.82 53.9039C42.82 53.9039 42.82 54.864 42.7877 54.864V54.8796H11.9924C11.9924 54.8796 11.0327 54.8796 11.0327 54.864H10.9999V34.8339H14.2877V51.6389H39.5323V34.8339H42.82V53.9039Z" fill="#F48024"/>
<path d="M44.4555 25.899L33.6117 9.99704L30.2152 12.3132L41.059 28.2151L44.4555 25.899Z" fill="#F48024"/>
<path d="M49.2559 24.9632L45.9648 5.99998L41.9144 6.70293L45.2055 25.6661L49.2559 24.9632Z" fill="#F48024"/>
</svg>
