<svg width="60" height="60" viewBox="0 0 60 60" fill="none" xmlns="http://www.w3.org/2000/svg">
<path fill-rule="evenodd" clip-rule="evenodd" d="M0 0H60V60H0V0ZM45.9649 6L49.256 24.9632L45.2056 25.6661L41.9145 6.70295L45.9649 6ZM44.4556 25.899L33.6118 9.99706L30.2153 12.3132L41.0591 28.2151L44.4556 25.899ZM21.661 22.7115L38.238 32.4887L40.326 28.9485L23.7491 19.1713L21.661 22.7115ZM18.3066 32.5955L36.8927 37.5918L37.9598 33.6222L19.3737 28.6259L18.3066 32.5955ZM36.4538 43.0927L17.2887 41.3259L17.6659 37.2335L36.8311 39.0002L36.4538 43.0927ZM36.2628 44.249H17.0157V48.3601H36.2628V44.249ZM42.7878 54.864C42.8201 54.864 42.8201 53.9039 42.8201 53.9039V34.8339H39.5324V51.6389H14.2878V34.8339H11V54.864H11.0328C11.0328 54.8796 11.9925 54.8796 11.9925 54.8796H42.7878V54.864Z" fill="white"/>
</svg>
