<svg width="60" height="60" viewBox="0 0 60 60" fill="none" xmlns="http://www.w3.org/2000/svg">
<path fill-rule="evenodd" clip-rule="evenodd" d="M34.167 18.283C31.548 19.236 29.893 21.694 30.081 24.384L30.144 25.422L29.096 25.295C25.283 24.808 21.951 23.156 19.122 20.38L17.739 19.003L17.383 20.02C16.629 22.288 17.111 24.681 18.682 26.291C19.52 27.181 19.331 27.308 17.886 26.778C17.383 26.609 16.943 26.482 16.901 26.545C16.755 26.694 17.257 28.621 17.655 29.384C18.2 30.444 19.31 31.482 20.526 32.096L21.553 32.583L20.338 32.604C19.165 32.604 19.123 32.625 19.249 33.07C19.668 34.447 21.323 35.909 23.167 36.545L24.466 36.989L23.335 37.667C21.659 38.642 19.689 39.192 17.719 39.235C16.775 39.256 16 39.341 16 39.404C16 39.616 18.557 40.802 20.044 41.268C24.507 42.645 29.809 42.052 33.79 39.701C36.619 38.027 39.447 34.701 40.768 31.481C41.481 29.765 42.193 26.629 42.193 25.126C42.193 24.151 42.256 24.024 43.429 22.859C44.121 22.18 44.77 21.44 44.896 21.228C45.106 20.825 45.084 20.825 44.016 21.184C42.235 21.821 41.983 21.736 42.864 20.783C43.513 20.105 44.289 18.876 44.289 18.515C44.289 18.453 43.975 18.557 43.618 18.748C43.241 18.96 42.403 19.278 41.774 19.468L40.643 19.829L39.616 19.129C39.05 18.748 38.255 18.324 37.835 18.197C36.766 17.902 35.131 17.944 34.167 18.283ZM0 0H60V60H0V0Z" fill="white"/>
</svg>
