<svg width="976" height="200" viewBox="0 0 976 200" fill="none" xmlns="http://www.w3.org/2000/svg">
<path d="M58.5 62V25H104C145.421 25 179 58.5786 179 100C179 141.421 145.421 175 104 175H25V137H58.5V99.5H95V62H58.5Z" fill="#2156F2"/>
<path d="M289.38 51C300.077 51 308.171 53.7927 313.662 59.378C319.247 64.8687 322.04 72.9627 322.04 83.66V117.74C322.04 128.437 319.247 136.579 313.662 142.164C308.171 147.655 300.077 150.4 289.38 150.4H234V51H289.38ZM296.48 83.66C296.48 75.14 292.22 70.88 283.7 70.88H259.56V130.52H283.7C292.22 130.52 296.48 126.26 296.48 117.74V83.66Z" fill="black"/>
<path d="M368.151 91.47C364.365 91.47 362.471 93.3633 362.471 97.15V104.96H386.611V97.15C386.611 93.3633 384.718 91.47 380.931 91.47H368.151ZM408.621 148.98C390.351 150.873 373.784 151.82 358.921 151.82C352.484 151.82 347.325 149.879 343.443 145.998C339.562 142.117 337.621 136.957 337.621 130.52V96.44C337.621 89.34 339.609 83.802 343.585 79.826C347.656 75.7553 353.241 73.72 360.341 73.72H388.741C395.841 73.72 401.379 75.7553 405.355 79.826C409.426 83.802 411.461 89.34 411.461 96.44V122.71H362.471V128.39C362.471 129.81 362.945 130.993 363.891 131.94C364.838 132.887 366.021 133.36 367.441 133.36C376.813 133.36 390.54 132.65 408.621 131.23V148.98Z" fill="black"/>
<path d="M477.469 75.14H503.739L475.339 150.4H446.939L418.539 75.14H444.809L461.139 126.26L477.469 75.14Z" fill="black"/>
<path d="M512.128 129.81C538.067 131.23 555.627 131.94 564.81 131.94C566.987 131.94 568.691 131.325 569.922 130.094C571.247 128.769 571.91 127.017 571.91 124.84V112.06H539.25C529.31 112.06 522.068 109.835 517.524 105.386C513.075 100.842 510.85 93.6 510.85 83.66V79.4C510.85 69.46 513.075 62.2653 517.524 57.816C522.068 53.272 529.31 51 539.25 51H589.092V70.88H544.93C539.25 70.88 536.41 73.72 536.41 79.4V82.24C536.41 87.92 539.25 90.76 544.93 90.76H570.49C579.767 90.76 586.583 92.9373 590.938 97.292C595.293 101.647 597.47 108.463 597.47 117.74V124.84C597.47 134.117 595.293 140.933 590.938 145.288C586.583 149.643 579.767 151.82 570.49 151.82C565.662 151.82 560.55 151.725 555.154 151.536L542.09 150.968C532.434 150.495 522.447 149.832 512.128 148.98V129.81Z" fill="black"/>
<path d="M654.969 94.31C649.952 94.31 644.272 95.2567 637.929 97.15V131.23H659.229C663.016 131.23 664.909 129.337 664.909 125.55V99.28C664.909 97.86 664.436 96.6767 663.489 95.73C662.542 94.7833 661.359 94.31 659.939 94.31H654.969ZM637.929 150.4V174.54H613.079V75.14H635.089L636.509 82.24C640.958 79.3053 645.502 77.1753 650.141 75.85C654.874 74.43 658.85 73.72 662.069 73.72H668.459C674.896 73.72 680.056 75.6607 683.937 79.542C687.818 83.4233 689.759 88.5827 689.759 95.02V127.68C689.759 134.78 687.724 140.365 683.653 144.436C679.677 148.412 674.139 150.4 667.039 150.4H637.929Z" fill="black"/>
<path d="M736.602 131.94C741.62 131.94 747.3 130.993 753.642 129.1V120.58H733.052C731.632 120.58 730.449 121.053 729.502 122C728.556 122.947 728.082 124.13 728.082 125.55V126.97C728.082 128.39 728.556 129.573 729.502 130.52C730.449 131.467 731.632 131.94 733.052 131.94H736.602ZM710.332 76.56C727.656 74.6667 743.276 73.72 757.192 73.72C763.63 73.72 768.789 75.6607 772.67 79.542C776.552 83.4233 778.492 88.5827 778.492 95.02V150.4H756.482L755.062 143.3C750.613 146.235 746.022 148.412 741.288 149.832C736.65 151.157 732.721 151.82 729.502 151.82H724.532C718.095 151.82 712.936 149.879 709.054 145.998C705.173 142.117 703.232 136.957 703.232 130.52V124.13C703.232 117.693 705.173 112.533 709.054 108.652C712.936 104.771 718.095 102.83 724.532 102.83H753.642V97.15C753.642 95.73 753.169 94.5467 752.222 93.6C751.276 92.6533 750.092 92.18 748.672 92.18C742.519 92.18 735.703 92.464 728.224 93.032C720.84 93.6 714.876 94.026 710.332 94.31V76.56Z" fill="black"/>
<path d="M862.234 148.98C844.531 150.873 828.911 151.82 815.373 151.82C808.936 151.82 803.777 149.879 799.896 145.998C796.014 142.117 794.073 136.957 794.073 130.52V97.86C794.073 90.76 796.061 85.222 800.037 81.246C804.108 77.1753 809.694 75.14 816.794 75.14H862.234V94.31H824.604C820.817 94.31 818.924 96.2033 818.924 99.99V127.68C818.924 129.1 819.397 130.283 820.344 131.23C821.29 132.177 822.473 132.65 823.893 132.65C832.413 132.65 845.194 131.94 862.234 130.52V148.98Z" fill="black"/>
<path d="M906.936 91.47C903.149 91.47 901.256 93.3633 901.256 97.15V104.96H925.396V97.15C925.396 93.3633 923.502 91.47 919.716 91.47H906.936ZM947.406 148.98C929.135 150.873 912.568 151.82 897.706 151.82C891.268 151.82 886.109 149.879 882.228 145.998C878.346 142.117 876.406 136.957 876.406 130.52V96.44C876.406 89.34 878.394 83.802 882.37 79.826C886.44 75.7553 892.026 73.72 899.126 73.72H927.526C934.626 73.72 940.164 75.7553 944.14 79.826C948.21 83.802 950.246 89.34 950.246 96.44V122.71H901.256V128.39C901.256 129.81 901.729 130.993 902.676 131.94C903.622 132.887 904.806 133.36 906.226 133.36C915.598 133.36 929.324 132.65 947.406 131.23V148.98Z" fill="black"/>
</svg>
