<svg width="347" height="70" viewBox="0 0 347 70" fill="none" xmlns="http://www.w3.org/2000/svg"><path d="M117.407 21.393h14.136c3.893 0 6.966.307 9.22.922 2.253.58 3.909 1.604 4.968 3.073 1.058 1.468 1.588 3.5 1.588 6.095v13.522c0 2.527-.495 4.49-1.486 5.89-.99 1.366-2.612 2.34-4.866 2.92-2.253.546-5.378.82-9.373.82h-14.187V21.392zm13.829 27.556c2.185 0 3.824-.086 4.917-.256 1.127-.205 1.929-.58 2.407-1.127.512-.547.768-1.4.768-2.561V31.329c0-1.57-.631-2.663-1.895-3.278-1.229-.649-3.209-.973-5.941-.973h-6.095v21.87h5.839zm34.673 6.197c-8.775 0-13.163-2.68-13.163-8.041v-8.912c0-3.108.99-5.361 2.971-6.761 2.014-1.4 5.105-2.1 9.27-2.1 3.927 0 6.796.683 8.605 2.049 1.844 1.331 2.766 3.602 2.766 6.812v6.044h-16.083v2.253c0 1.434.512 2.459 1.537 3.073 1.024.615 2.868.922 5.532.922 2.458 0 5.224-.358 8.297-1.075v4.763c-3.039.649-6.283.973-9.732.973zm3.33-15.16V36.4c0-.82-.342-1.434-1.025-1.844-.649-.41-1.758-.614-3.329-.614-1.81 0-3.022.204-3.637.614-.648.444-.973 1.059-.973 1.844v3.585h8.964zm9.557-10.142h7.939l5.429 17.158 5.225-17.158h7.529l-9.117 24.79h-7.581l-9.424-24.79zm40.451 25.302c-3.175 0-7.102-.307-11.78-.922V48.13c5.805.888 9.766 1.332 11.883 1.332 4.439 0 6.658-1.144 6.658-3.432v-2.151c0-1.093-.324-1.93-.973-2.51-.615-.58-1.741-.87-3.38-.87h-3.893c-7.307 0-10.961-2.903-10.961-8.708v-2.458c0-2.903 1.212-5.037 3.637-6.403 2.424-1.366 6.265-2.048 11.524-2.048 2.732 0 6.197.221 10.397.665v5.942c-5.156-.615-8.707-.922-10.653-.922-2.698 0-4.507.222-5.429.666-.991.478-1.486 1.229-1.486 2.253v2.357c0 1.74 1.469 2.612 4.405 2.612h3.995c3.79 0 6.539.7 8.247 2.1 1.707 1.4 2.561 3.534 2.561 6.402v2.202c0 3.962-1.418 6.642-4.252 8.042-1.366.717-2.885 1.212-4.558 1.485-1.639.308-3.62.461-5.942.461zm19.999-25.302h7.068v2.458c.444-1.092 1.315-1.86 2.612-2.304 1.298-.444 3.227-.666 5.788-.666 2.151 0 3.876.17 5.173.512 1.332.341 2.339.888 3.022 1.639a6.168 6.168 0 011.332 2.51c.239.887.358 2.117.358 3.688v8.143c0 2.459-.358 4.354-1.075 5.686-.717 1.332-1.827 2.27-3.329 2.817-1.469.546-3.483.82-6.044.82-2.459 0-4.235-.206-5.327-.615-1.093-.41-1.793-1.212-2.1-2.408v13.164h-7.478V29.844zm12.6 20.641c1.468 0 2.578-.102 3.329-.307.751-.205 1.263-.563 1.537-1.076.273-.512.409-1.28.409-2.304v-9.169c0-1.127-.119-1.929-.358-2.407-.239-.512-.717-.854-1.434-1.024-.717-.171-1.895-.257-3.535-.257-1.4 0-2.475.12-3.226.359-.717.239-1.213.615-1.486 1.127-.239.512-.358 1.246-.358 2.202v9.169c0 1.024.119 1.792.358 2.304.273.513.769.871 1.486 1.076.717.205 1.809.307 3.278.307zm25.629 4.661c-2.322 0-4.064-.205-5.225-.614-1.127-.444-1.929-1.212-2.407-2.305-.444-1.127-.666-2.8-.666-5.02 0-1.98.239-3.534.717-4.66.512-1.127 1.315-1.93 2.408-2.408 1.126-.512 2.663-.768 4.609-.768h8.4v-1.69c0-1.059-.153-1.844-.461-2.357-.273-.512-.802-.87-1.588-1.075-.751-.205-1.895-.308-3.431-.308-2.117 0-5.02.205-8.708.615v-4.712c2.698-.342 5.857-.512 9.476-.512 3.176 0 5.617.239 7.324.717 1.742.478 2.988 1.297 3.739 2.458.752 1.161 1.127 2.852 1.127 5.071v17.056h-7.324V52.38c-.581.99-1.366 1.69-2.356 2.1-.99.444-2.868.666-5.634.666zm2.919-4.66c1.503 0 2.578-.052 3.227-.154.478-.069.802-.171.973-.308.205-.136.376-.358.512-.666.137-.238.205-.597.205-1.075v-4.815h-5.122c-1.161 0-1.98.086-2.458.256-.478.137-.803.444-.973.922-.171.444-.256 1.247-.256 2.408 0 1.127.085 1.912.256 2.356.17.444.495.734.973.87.512.137 1.4.205 2.663.205zm31.062 4.66c-1.297 0-2.322-.034-3.073-.102a36.155 36.155 0 01-2.766-.256c-1.092-.137-1.997-.376-2.714-.717-.683-.342-1.4-.854-2.151-1.537-1.4-1.16-2.1-3.141-2.1-5.941v-8.247c0-2.253.512-4.131 1.536-5.634.376-.546.922-1.041 1.639-1.485a11.581 11.581 0 012.254-1.127c.614-.205 1.434-.376 2.458-.512a31.087 31.087 0 012.715-.256h2.715c1.912 0 4.422.307 7.529.922v4.917c-3.517-.82-6.215-1.23-8.093-1.23-3.449 0-5.173 1.161-5.173 3.483v9.117c0 2.63 1.895 3.944 5.685 3.944 1.844 0 4.491-.375 7.939-1.127v4.918c-3.107.58-5.907.87-8.4.87zm25.068 0c-8.775 0-13.163-2.68-13.163-8.041v-8.912c0-3.108.99-5.361 2.971-6.761 2.014-1.4 5.105-2.1 9.27-2.1 3.927 0 6.796.683 8.605 2.049 1.844 1.331 2.766 3.602 2.766 6.812v6.044H330.89v2.253c0 1.434.512 2.459 1.537 3.073 1.024.615 2.868.922 5.532.922 2.458 0 5.224-.358 8.297-1.075v4.763c-3.039.649-6.283.973-9.732.973zm3.33-15.16V36.4c0-.82-.342-1.434-1.025-1.844-.649-.41-1.758-.614-3.329-.614-1.81 0-3.022.204-3.637.614-.648.444-.973 1.059-.973 1.844v3.585h8.964z" fill="#00BDFF"/><path fill-rule="evenodd" clip-rule="evenodd" d="M13.263 24.74C9.734 26.614 1.364 32.38.097 45.41c-.656 6.79 2.014 13.13 7.737 18.373 4.242 3.873 8.71 5.824 9.168 6.024.549.202 35.31.195 53.098.192h5.19c8.167-2.572 14.637-6.59 18.528-11.733 3.529-4.668 5.09-10.185 4.524-16.001-.452-4.693-2.285-9.137-4.977-12.806-3.145-5.225-11.514-9.161-15.699-9.61C71.852 7.84 64.342.676 56.086.052c-6.697-.525-12.555 2.945-16.56 6.49-1.809 1.622-3.257 3.245-4.23 4.518l-.13-.06a2.544 2.544 0 00-.254-.114c-3.144-1.324-8.868-2.397-13.777.3-5.293 2.895-7.035 8.711-7.578 13.055-.023.224-.136.424-.294.499zm5.676 3.212C15.822 29.525 8.431 33.8 7.312 44.747c-.58 5.705.64 11.031 5.694 15.435 3.746 3.255 6.554 3.755 6.959 3.923.484.17 31.182.164 46.891.162h4.584c7.212-2.161 12.356-4.399 15.792-8.72 3.117-3.92 4.495-7.986 3.996-12.873-.4-3.943-2.587-7.676-4.964-10.758-2.778-4.39-9.6-6.559-13.295-6.936C67.834 14.892 62.34 7.735 55.049 7.21c-5.914-.44-10.518 2.475-14.054 5.453-1.599 1.363-3.446 3.864-4.305 4.934a2.657 2.657 0 01-.115-.052 2.53 2.53 0 00-.225-.095c-2.777-1.112-7.831-2.582-12.166-.317-4.675 2.432-4.506 6.75-4.985 10.399-.02.188-.12.356-.26.419zm7.637 17.779l12.862-6.538-12.862-6.538V25.25l19.35 10.207c1.707.89 1.707 6.581 0 7.472l-19.35 10.207V45.73zm21.488 4.56h25.179c.569 2.276.569 3.414 0 5.69H48.064c-.575-2.31-.575-3.437 0-5.69z" fill="#00BDFF"/></svg>