<svg width="60" height="60" viewBox="0 0 60 60" fill="none" xmlns="http://www.w3.org/2000/svg"><path fill="#fff" d="M0 0h60v60H0z"/><path d="M21.66 22.712l16.578 9.777 2.088-3.54-16.577-9.778-2.088 3.54zm-3.354 9.884l18.587 4.996 1.067-3.97-18.586-4.996-1.067 3.97zm-1.017 8.73l19.165 1.767L36.83 39l-19.165-1.767-.377 4.093zm18.974 2.923H17.016v4.111h19.247v-4.11z" fill="#F48024"/><path d="M42.82 53.904s0 .96-.032.96v.016H11.992s-.96 0-.96-.016H11v-20.03h3.288v16.805h25.244V34.834h3.288v19.07zm1.636-28.005L33.611 9.997l-3.397 2.316L41.06 28.215l3.397-2.316zm4.8-.936L45.965 6l-4.05.703 3.29 18.963 4.05-.703z" fill="#F48024"/></svg>