<svg width="60" height="60" viewBox="0 0 60 60" fill="none" xmlns="http://www.w3.org/2000/svg"><path fill-rule="evenodd" clip-rule="evenodd" d="M0 0h60v60H0V0zm45.965 6l3.291 18.963-4.05.703-3.292-18.963L45.964 6zm-1.51 19.899L33.613 9.997l-3.397 2.316L41.06 28.215l3.397-2.316zm-22.794-3.188l16.577 9.778 2.088-3.54-16.577-9.778-2.088 3.54zm-3.354 9.885l18.586 4.996 1.067-3.97-18.586-4.996-1.067 3.97zm18.147 10.497l-19.165-1.767.377-4.093L36.83 39l-.377 4.093zm-.191 1.156H17.016v4.111h19.247v-4.11zm6.525 10.615c.032 0 .032-.96.032-.96v-19.07h-3.288v16.805H14.288V34.834H11v20.03h.033c0 .016.96.016.96.016h30.795v-.016z" fill="#fff"/></svg>