<svg width="60" height="60" viewBox="0 0 60 60" fill="none" xmlns="http://www.w3.org/2000/svg"><path fill-rule="evenodd" clip-rule="evenodd" d="M34.167 18.283c-2.619.953-4.274 3.411-4.086 6.101l.063 1.038-1.048-.127c-3.813-.487-7.145-2.139-9.974-4.915l-1.383-1.377-.356 1.017c-.754 2.268-.272 4.661 1.299 6.271.838.89.649 1.017-.796.487-.503-.169-.943-.296-.985-.233-.146.149.356 2.076.754 2.839.545 1.06 1.655 2.098 2.871 2.712l1.027.487-1.215.021c-1.173 0-1.215.021-1.089.466.419 1.377 2.074 2.839 3.918 3.475l1.299.444-1.131.678a11.786 11.786 0 01-5.616 1.568c-.944.021-1.719.106-1.719.169 0 .212 2.557 1.398 4.044 1.864 4.463 1.377 9.765.784 13.746-1.567 2.829-1.674 5.657-5 6.978-8.22.713-1.716 1.425-4.852 1.425-6.355 0-.975.063-1.102 1.236-2.267.692-.679 1.341-1.419 1.467-1.631.21-.403.188-.403-.88-.044-1.781.637-2.033.552-1.152-.401.649-.678 1.425-1.907 1.425-2.268 0-.062-.314.042-.671.233-.377.212-1.215.53-1.844.72l-1.131.361-1.027-.7c-.566-.381-1.361-.805-1.781-.932-1.069-.295-2.704-.253-3.668.086zM0 0h60v60H0V0z" fill="#fff"/></svg>